<svg width="509" height="556" viewBox="0 0 509 556" fill="none" xmlns="http://www.w3.org/2000/svg">
<g filter="url(#filter0_d_319_27)">
<rect x="54.7188" y="30.0624" width="400" height="447" rx="26" fill="#5030E5"/>
</g>
<path d="M190.52 99V73.08H208.304V77.652H195.416V82.584H201.464C201.704 82.584 202.04 82.596 202.472 82.62C202.904 82.632 203.288 82.656 203.624 82.692C205.112 82.848 206.348 83.31 207.332 84.078C208.328 84.834 209.072 85.8 209.564 86.976C210.068 88.14 210.32 89.412 210.32 90.792C210.32 92.172 210.074 93.45 209.582 94.626C209.09 95.79 208.346 96.756 207.35 97.524C206.366 98.28 205.124 98.736 203.624 98.892C203.288 98.928 202.904 98.958 202.472 98.982C202.052 98.994 201.716 99 201.464 99H190.52ZM195.416 94.428H201.248C201.5 94.428 201.776 94.416 202.076 94.392C202.376 94.368 202.652 94.332 202.904 94.284C203.9 94.068 204.56 93.606 204.884 92.898C205.22 92.19 205.388 91.488 205.388 90.792C205.388 90.084 205.22 89.382 204.884 88.686C204.56 87.978 203.9 87.516 202.904 87.3C202.652 87.24 202.376 87.204 202.076 87.192C201.776 87.168 201.5 87.156 201.248 87.156H195.416V94.428ZM231.25 79.56V99H226.57V87.12L217.786 99H213.898V79.56H218.578V91.044L227.398 79.56H231.25ZM243.169 99.54C241.357 99.54 239.677 99.168 238.129 98.424C236.593 97.668 235.381 96.636 234.493 95.328L238.345 92.736C239.029 93.432 239.761 93.978 240.541 94.374C241.333 94.77 242.197 94.968 243.133 94.968C244.105 94.968 244.861 94.758 245.401 94.338C245.953 93.918 246.229 93.36 246.229 92.664C246.229 91.992 246.007 91.536 245.563 91.296C245.131 91.056 244.579 90.93 243.907 90.918C243.247 90.906 242.581 90.9 241.909 90.9H240.757V87.084H241.909C242.917 87.084 243.775 87 244.483 86.832C245.191 86.652 245.545 86.16 245.545 85.356C245.545 84.684 245.299 84.216 244.807 83.952C244.315 83.688 243.745 83.556 243.097 83.556C242.233 83.556 241.363 83.742 240.487 84.114C239.611 84.486 238.813 84.924 238.093 85.428L235.393 82.08C236.497 81.156 237.721 80.418 239.065 79.866C240.421 79.302 241.837 79.02 243.313 79.02C244.561 79.02 245.737 79.236 246.841 79.668C247.957 80.1 248.857 80.754 249.541 81.63C250.237 82.494 250.585 83.58 250.585 84.888C250.585 85.728 250.417 86.55 250.081 87.354C249.745 88.158 249.169 88.956 248.353 89.748L248.317 88.2C248.917 88.512 249.433 88.914 249.865 89.406C250.309 89.886 250.645 90.444 250.873 91.08C251.113 91.716 251.233 92.412 251.233 93.168C251.233 94.56 250.861 95.73 250.117 96.678C249.373 97.626 248.389 98.34 247.165 98.82C245.941 99.3 244.609 99.54 243.169 99.54ZM255.171 99V79.56H260.067V86.976H268.059V79.56H272.955V99H268.059V91.548H260.067V99H255.171ZM287.025 99.54C285.033 99.54 283.275 99.114 281.751 98.262C280.239 97.398 279.051 96.216 278.187 94.716C277.335 93.204 276.909 91.476 276.909 89.532C276.909 87.408 277.329 85.56 278.169 83.988C279.009 82.416 280.167 81.198 281.643 80.334C283.119 79.458 284.817 79.02 286.737 79.02C288.777 79.02 290.511 79.5 291.939 80.46C293.367 81.42 294.423 82.77 295.107 84.51C295.791 86.25 296.031 88.296 295.827 90.648H290.985V88.848C290.985 86.868 290.667 85.446 290.031 84.582C289.407 83.706 288.381 83.268 286.953 83.268C285.285 83.268 284.055 83.778 283.263 84.798C282.483 85.806 282.093 87.3 282.093 89.28C282.093 91.092 282.483 92.496 283.263 93.492C284.055 94.476 285.213 94.968 286.737 94.968C287.697 94.968 288.519 94.758 289.203 94.338C289.887 93.918 290.409 93.312 290.769 92.52L295.665 93.924C294.933 95.7 293.775 97.08 292.191 98.064C290.619 99.048 288.897 99.54 287.025 99.54ZM280.581 90.648V87.012H293.469V90.648H280.581ZM308.459 99.54C306.443 99.54 304.715 99.09 303.275 98.19C301.835 97.29 300.731 96.066 299.963 94.518C299.195 92.97 298.811 91.224 298.811 89.28C298.811 87.312 299.207 85.554 299.999 84.006C300.803 82.458 301.931 81.24 303.383 80.352C304.835 79.464 306.551 79.02 308.531 79.02C310.823 79.02 312.743 79.602 314.291 80.766C315.851 81.918 316.847 83.496 317.279 85.5L312.383 86.796C312.095 85.788 311.591 85.002 310.871 84.438C310.163 83.874 309.359 83.592 308.459 83.592C307.427 83.592 306.581 83.844 305.921 84.348C305.261 84.84 304.775 85.518 304.463 86.382C304.151 87.234 303.995 88.2 303.995 89.28C303.995 90.972 304.367 92.346 305.111 93.402C305.867 94.446 306.983 94.968 308.459 94.968C309.563 94.968 310.403 94.716 310.979 94.212C311.555 93.708 311.987 92.988 312.275 92.052L317.279 93.096C316.727 95.16 315.683 96.75 314.147 97.866C312.611 98.982 310.715 99.54 308.459 99.54Z" fill="white"/>
<path d="M114.075 265.648C113.371 265.648 112.731 265.488 112.155 265.168C111.579 264.837 111.12 264.389 110.779 263.824C110.438 263.259 110.267 262.624 110.267 261.92C110.267 261.205 110.438 260.565 110.779 260C111.12 259.435 111.579 258.992 112.155 258.672C112.731 258.352 113.371 258.192 114.075 258.192C114.736 258.192 115.344 258.352 115.899 258.672C116.454 258.992 116.896 259.435 117.227 260C117.568 260.565 117.739 261.205 117.739 261.92C117.739 262.624 117.568 263.259 117.227 263.824C116.896 264.389 116.454 264.837 115.899 265.168C115.344 265.488 114.736 265.648 114.075 265.648ZM139.168 275.84V269.744C140.064 269.744 140.784 269.52 141.328 269.072C141.872 268.613 142.288 268.005 142.576 267.248C142.864 266.491 143.083 265.643 143.232 264.704C143.381 263.755 143.509 262.795 143.616 261.824C143.765 260.405 143.883 259.035 143.968 257.712C144.064 256.389 144.144 255.019 144.208 253.6C144.283 252.181 144.368 250.629 144.464 248.944L158.672 248.96V269.744H160.32V275.84H157.984V272H141.52V275.84H139.168ZM143.664 269.744H156.32V251.216L146.656 251.2C146.592 252.501 146.528 253.76 146.464 254.976C146.4 256.192 146.325 257.419 146.24 258.656C146.155 259.893 146.043 261.184 145.904 262.528C145.787 263.755 145.648 264.827 145.488 265.744C145.328 266.661 145.104 267.445 144.816 268.096C144.539 268.747 144.155 269.296 143.664 269.744ZM171.35 272.48C169.632 272.48 168.166 272.091 166.95 271.312C165.734 270.533 164.8 269.456 164.15 268.08C163.499 266.704 163.174 265.125 163.174 263.344C163.174 261.531 163.504 259.941 164.166 258.576C164.827 257.211 165.766 256.149 166.982 255.392C168.208 254.624 169.664 254.24 171.35 254.24C173.078 254.24 174.55 254.629 175.766 255.408C176.992 256.176 177.926 257.248 178.566 258.624C179.216 259.989 179.542 261.563 179.542 263.344C179.542 265.157 179.216 266.752 178.566 268.128C177.915 269.493 176.976 270.56 175.75 271.328C174.523 272.096 173.056 272.48 171.35 272.48ZM171.35 270.224C173.27 270.224 174.699 269.589 175.638 268.32C176.576 267.04 177.046 265.381 177.046 263.344C177.046 261.253 176.571 259.589 175.622 258.352C174.683 257.115 173.259 256.496 171.35 256.496C170.059 256.496 168.992 256.789 168.15 257.376C167.318 257.952 166.694 258.757 166.278 259.792C165.872 260.816 165.67 262 165.67 263.344C165.67 265.424 166.15 267.093 167.11 268.352C168.07 269.6 169.483 270.224 171.35 270.224ZM194.093 272V251.584L189.757 254.192V251.552L194.093 248.96H196.477V272H194.093ZM220.128 272V265.568C219.552 265.856 218.843 266.107 218 266.32C217.158 266.533 216.251 266.64 215.28 266.64C213.531 266.64 212.112 266.251 211.024 265.472C209.936 264.693 209.227 263.568 208.896 262.096C208.79 261.659 208.715 261.195 208.672 260.704C208.64 260.213 208.619 259.771 208.608 259.376C208.598 258.981 208.592 258.699 208.592 258.528V254.72H210.96V258.528C210.96 258.88 210.971 259.28 210.992 259.728C211.014 260.176 211.062 260.613 211.136 261.04C211.35 262.203 211.83 263.083 212.576 263.68C213.334 264.277 214.395 264.576 215.76 264.576C216.614 264.576 217.419 264.469 218.176 264.256C218.944 264.032 219.595 263.733 220.128 263.36V254.72H222.48V272H220.128ZM232.203 272.48C230.901 272.48 229.808 272.245 228.923 271.776C228.048 271.307 227.392 270.683 226.955 269.904C226.517 269.125 226.299 268.277 226.299 267.36C226.299 266.421 226.485 265.621 226.859 264.96C227.243 264.288 227.76 263.739 228.411 263.312C229.072 262.885 229.835 262.56 230.699 262.336C231.573 262.123 232.539 261.936 233.595 261.776C234.661 261.605 235.701 261.461 236.715 261.344C237.739 261.216 238.635 261.093 239.403 260.976L238.571 261.488C238.603 259.781 238.272 258.517 237.579 257.696C236.885 256.875 235.68 256.464 233.963 256.464C232.779 256.464 231.776 256.731 230.955 257.264C230.144 257.797 229.573 258.64 229.243 259.792L226.955 259.12C227.349 257.573 228.144 256.373 229.339 255.52C230.533 254.667 232.085 254.24 233.995 254.24C235.573 254.24 236.912 254.539 238.011 255.136C239.12 255.723 239.904 256.576 240.363 257.696C240.576 258.197 240.715 258.757 240.779 259.376C240.843 259.995 240.875 260.624 240.875 261.264V272H238.779V267.664L239.387 267.92C238.8 269.403 237.888 270.533 236.651 271.312C235.413 272.091 233.931 272.48 232.203 272.48ZM232.475 270.448C233.573 270.448 234.533 270.251 235.355 269.856C236.176 269.461 236.837 268.923 237.339 268.24C237.84 267.547 238.165 266.768 238.315 265.904C238.443 265.349 238.512 264.741 238.523 264.08C238.533 263.408 238.539 262.907 238.539 262.576L239.435 263.04C238.635 263.147 237.765 263.253 236.827 263.36C235.899 263.467 234.981 263.589 234.075 263.728C233.179 263.867 232.368 264.032 231.643 264.224C231.152 264.363 230.677 264.56 230.219 264.816C229.76 265.061 229.381 265.392 229.083 265.808C228.795 266.224 228.651 266.741 228.651 267.36C228.651 267.861 228.773 268.347 229.019 268.816C229.275 269.285 229.68 269.675 230.235 269.984C230.8 270.293 231.547 270.448 232.475 270.448ZM252.508 272.48C250.769 272.48 249.297 272.091 248.092 271.312C246.887 270.533 245.969 269.461 245.34 268.096C244.721 266.72 244.401 265.141 244.38 263.36C244.401 261.547 244.732 259.957 245.372 258.592C246.012 257.216 246.935 256.149 248.14 255.392C249.345 254.624 250.807 254.24 252.524 254.24C254.273 254.24 255.793 254.667 257.084 255.52C258.385 256.373 259.276 257.541 259.756 259.024L257.452 259.76C257.047 258.725 256.401 257.925 255.516 257.36C254.641 256.784 253.639 256.496 252.508 256.496C251.239 256.496 250.188 256.789 249.356 257.376C248.524 257.952 247.905 258.757 247.5 259.792C247.095 260.827 246.887 262.016 246.876 263.36C246.897 265.429 247.377 267.093 248.316 268.352C249.255 269.6 250.652 270.224 252.508 270.224C253.681 270.224 254.679 269.957 255.5 269.424C256.332 268.88 256.961 268.091 257.388 267.056L259.756 267.76C259.116 269.296 258.177 270.469 256.94 271.28C255.703 272.08 254.225 272.48 252.508 272.48ZM268.209 272.48C266.908 272.48 265.814 272.245 264.929 271.776C264.054 271.307 263.398 270.683 262.961 269.904C262.524 269.125 262.305 268.277 262.305 267.36C262.305 266.421 262.492 265.621 262.865 264.96C263.249 264.288 263.766 263.739 264.417 263.312C265.078 262.885 265.841 262.56 266.705 262.336C267.58 262.123 268.545 261.936 269.601 261.776C270.668 261.605 271.708 261.461 272.721 261.344C273.745 261.216 274.641 261.093 275.409 260.976L274.577 261.488C274.609 259.781 274.278 258.517 273.585 257.696C272.892 256.875 271.686 256.464 269.969 256.464C268.785 256.464 267.782 256.731 266.961 257.264C266.15 257.797 265.58 258.64 265.249 259.792L262.961 259.12C263.356 257.573 264.15 256.373 265.345 255.52C266.54 254.667 268.092 254.24 270.001 254.24C271.58 254.24 272.918 254.539 274.017 255.136C275.126 255.723 275.91 256.576 276.369 257.696C276.582 258.197 276.721 258.757 276.785 259.376C276.849 259.995 276.881 260.624 276.881 261.264V272H274.785V267.664L275.393 267.92C274.806 269.403 273.894 270.533 272.657 271.312C271.42 272.091 269.937 272.48 268.209 272.48ZM268.481 270.448C269.58 270.448 270.54 270.251 271.361 269.856C272.182 269.461 272.844 268.923 273.345 268.24C273.846 267.547 274.172 266.768 274.321 265.904C274.449 265.349 274.518 264.741 274.529 264.08C274.54 263.408 274.545 262.907 274.545 262.576L275.441 263.04C274.641 263.147 273.772 263.253 272.833 263.36C271.905 263.467 270.988 263.589 270.081 263.728C269.185 263.867 268.374 264.032 267.649 264.224C267.158 264.363 266.684 264.56 266.225 264.816C265.766 265.061 265.388 265.392 265.089 265.808C264.801 266.224 264.657 266.741 264.657 267.36C264.657 267.861 264.78 268.347 265.025 268.816C265.281 269.285 265.686 269.675 266.241 269.984C266.806 270.293 267.553 270.448 268.481 270.448ZM114.075 333.648C113.371 333.648 112.731 333.488 112.155 333.168C111.579 332.837 111.12 332.389 110.779 331.824C110.438 331.259 110.267 330.624 110.267 329.92C110.267 329.205 110.438 328.565 110.779 328C111.12 327.435 111.579 326.992 112.155 326.672C112.731 326.352 113.371 326.192 114.075 326.192C114.736 326.192 115.344 326.352 115.899 326.672C116.454 326.992 116.896 327.435 117.227 328C117.568 328.565 117.739 329.205 117.739 329.92C117.739 330.624 117.568 331.259 117.227 331.824C116.896 332.389 116.454 332.837 115.899 333.168C115.344 333.488 114.736 333.648 114.075 333.648ZM139.6 339.984L139.616 337.84L150.032 328.432C150.928 327.621 151.52 326.853 151.808 326.128C152.107 325.392 152.256 324.624 152.256 323.824C152.256 322.875 152.032 322.016 151.584 321.248C151.136 320.48 150.533 319.872 149.776 319.424C149.019 318.965 148.171 318.736 147.232 318.736C146.251 318.736 145.376 318.971 144.608 319.44C143.84 319.909 143.232 320.528 142.784 321.296C142.347 322.064 142.133 322.901 142.144 323.808H139.744C139.744 322.411 140.075 321.157 140.736 320.048C141.397 318.939 142.293 318.069 143.424 317.44C144.555 316.8 145.835 316.48 147.264 316.48C148.661 316.48 149.915 316.811 151.024 317.472C152.144 318.123 153.024 319.008 153.664 320.128C154.315 321.237 154.64 322.475 154.64 323.84C154.64 324.8 154.523 325.648 154.288 326.384C154.064 327.109 153.707 327.787 153.216 328.416C152.736 329.035 152.123 329.675 151.376 330.336L142.128 338.688L141.76 337.728H154.64V339.984H139.6ZM158.774 340L158.79 322.72H161.158V331.04L168.87 322.72H172.006L163.91 331.36L173.062 340H169.638L161.158 331.68V340H158.774ZM189.431 340.48C187.842 340.48 186.498 340.08 185.399 339.28C184.301 338.469 183.469 337.376 182.903 336C182.338 334.613 182.055 333.061 182.055 331.344C182.055 329.595 182.338 328.037 182.903 326.672C183.479 325.296 184.322 324.213 185.431 323.424C186.541 322.635 187.906 322.24 189.527 322.24C191.106 322.24 192.461 322.64 193.591 323.44C194.722 324.24 195.586 325.328 196.183 326.704C196.791 328.08 197.095 329.627 197.095 331.344C197.095 333.072 196.791 334.624 196.183 336C195.575 337.376 194.701 338.469 193.559 339.28C192.418 340.08 191.042 340.48 189.431 340.48ZM181.655 347.68V322.72H183.767V335.728H184.023V347.68H181.655ZM189.191 338.288C190.397 338.288 191.399 337.984 192.199 337.376C192.999 336.768 193.597 335.941 193.991 334.896C194.397 333.84 194.599 332.656 194.599 331.344C194.599 330.043 194.402 328.869 194.007 327.824C193.613 326.779 193.01 325.952 192.199 325.344C191.399 324.736 190.381 324.432 189.143 324.432C187.938 324.432 186.935 324.725 186.135 325.312C185.346 325.899 184.754 326.715 184.359 327.76C183.965 328.795 183.767 329.989 183.767 331.344C183.767 332.677 183.965 333.872 184.359 334.928C184.754 335.973 185.351 336.795 186.151 337.392C186.951 337.989 187.965 338.288 189.191 338.288ZM205.853 340.48C204.551 340.48 203.458 340.245 202.573 339.776C201.698 339.307 201.042 338.683 200.605 337.904C200.167 337.125 199.949 336.277 199.949 335.36C199.949 334.421 200.135 333.621 200.509 332.96C200.893 332.288 201.41 331.739 202.061 331.312C202.722 330.885 203.485 330.56 204.349 330.336C205.223 330.123 206.189 329.936 207.245 329.776C208.311 329.605 209.351 329.461 210.365 329.344C211.389 329.216 212.285 329.093 213.053 328.976L212.221 329.488C212.253 327.781 211.922 326.517 211.229 325.696C210.535 324.875 209.33 324.464 207.613 324.464C206.429 324.464 205.426 324.731 204.605 325.264C203.794 325.797 203.223 326.64 202.893 327.792L200.605 327.12C200.999 325.573 201.794 324.373 202.989 323.52C204.183 322.667 205.735 322.24 207.645 322.24C209.223 322.24 210.562 322.539 211.661 323.136C212.77 323.723 213.554 324.576 214.013 325.696C214.226 326.197 214.365 326.757 214.429 327.376C214.493 327.995 214.525 328.624 214.525 329.264V340H212.429V335.664L213.037 335.92C212.45 337.403 211.538 338.533 210.301 339.312C209.063 340.091 207.581 340.48 205.853 340.48ZM206.125 338.448C207.223 338.448 208.183 338.251 209.005 337.856C209.826 337.461 210.487 336.923 210.989 336.24C211.49 335.547 211.815 334.768 211.965 333.904C212.093 333.349 212.162 332.741 212.173 332.08C212.183 331.408 212.189 330.907 212.189 330.576L213.085 331.04C212.285 331.147 211.415 331.253 210.477 331.36C209.549 331.467 208.631 331.589 207.725 331.728C206.829 331.867 206.018 332.032 205.293 332.224C204.802 332.363 204.327 332.56 203.869 332.816C203.41 333.061 203.031 333.392 202.733 333.808C202.445 334.224 202.301 334.741 202.301 335.36C202.301 335.861 202.423 336.347 202.669 336.816C202.925 337.285 203.33 337.675 203.885 337.984C204.45 338.293 205.197 338.448 206.125 338.448ZM225.214 340.48C223.475 340.48 221.955 340.101 220.654 339.344C219.363 338.576 218.345 337.515 217.598 336.16L219.486 334.96C220.115 336.027 220.899 336.837 221.838 337.392C222.777 337.947 223.854 338.224 225.07 338.224C226.339 338.224 227.358 337.931 228.126 337.344C228.894 336.757 229.278 335.952 229.278 334.928C229.278 334.224 229.113 333.664 228.782 333.248C228.462 332.832 227.971 332.533 227.31 332.352C226.659 332.171 225.843 332.08 224.862 332.08H222.814V330.064H224.83C226.025 330.064 226.985 329.851 227.71 329.424C228.446 328.987 228.814 328.304 228.814 327.376C228.814 326.395 228.446 325.669 227.71 325.2C226.985 324.72 226.115 324.48 225.102 324.48C224.078 324.48 223.107 324.693 222.19 325.12C221.283 325.536 220.521 326.075 219.902 326.736L218.398 325.152C219.262 324.203 220.27 323.483 221.422 322.992C222.585 322.491 223.87 322.24 225.278 322.24C226.387 322.24 227.39 322.437 228.286 322.832C229.193 323.216 229.907 323.781 230.43 324.528C230.963 325.275 231.23 326.171 231.23 327.216C231.23 328.197 230.99 329.045 230.51 329.76C230.041 330.475 229.374 331.067 228.51 331.536L228.382 330.656C229.129 330.795 229.747 331.093 230.238 331.552C230.729 332.011 231.091 332.56 231.326 333.2C231.561 333.84 231.678 334.491 231.678 335.152C231.678 336.251 231.39 337.2 230.814 338C230.249 338.789 229.475 339.403 228.494 339.84C227.523 340.267 226.43 340.48 225.214 340.48ZM243.269 340.48C241.679 340.48 240.335 340.08 239.237 339.28C238.138 338.469 237.306 337.376 236.741 336C236.175 334.613 235.893 333.061 235.893 331.344C235.893 329.595 236.175 328.037 236.741 326.672C237.317 325.296 238.159 324.213 239.269 323.424C240.378 322.635 241.743 322.24 243.365 322.24C244.943 322.24 246.298 322.64 247.429 323.44C248.559 324.24 249.423 325.328 250.021 326.704C250.629 328.08 250.933 329.627 250.933 331.344C250.933 333.072 250.629 334.624 250.021 336C249.413 337.376 248.538 338.469 247.397 339.28C246.255 340.08 244.879 340.48 243.269 340.48ZM235.493 347.68V322.72H237.605V335.728H237.861V347.68H235.493ZM243.029 338.288C244.234 338.288 245.237 337.984 246.037 337.376C246.837 336.768 247.434 335.941 247.829 334.896C248.234 333.84 248.437 332.656 248.437 331.344C248.437 330.043 248.239 328.869 247.845 327.824C247.45 326.779 246.847 325.952 246.037 325.344C245.237 324.736 244.218 324.432 242.981 324.432C241.775 324.432 240.773 324.725 239.973 325.312C239.183 325.899 238.591 326.715 238.197 327.76C237.802 328.795 237.605 329.989 237.605 331.344C237.605 332.677 237.802 333.872 238.197 334.928C238.591 335.973 239.189 336.795 239.989 337.392C240.789 337.989 241.802 338.288 243.029 338.288ZM262.058 340.48C260.373 340.48 258.912 340.107 257.674 339.36C256.448 338.613 255.493 337.563 254.81 336.208C254.128 334.853 253.786 333.264 253.786 331.44C253.786 329.552 254.122 327.92 254.794 326.544C255.466 325.168 256.41 324.107 257.626 323.36C258.853 322.613 260.298 322.24 261.962 322.24C263.669 322.24 265.125 322.635 266.33 323.424C267.536 324.203 268.448 325.323 269.066 326.784C269.685 328.245 269.968 329.989 269.914 332.016H267.514V331.184C267.472 328.944 266.986 327.253 266.058 326.112C265.141 324.971 263.797 324.4 262.026 324.4C260.17 324.4 258.746 325.003 257.754 326.208C256.773 327.413 256.282 329.131 256.282 331.36C256.282 333.536 256.773 335.227 257.754 336.432C258.746 337.627 260.149 338.224 261.962 338.224C263.2 338.224 264.277 337.941 265.194 337.376C266.122 336.8 266.853 335.973 267.386 334.896L269.578 335.744C268.896 337.248 267.888 338.416 266.554 339.248C265.232 340.069 263.733 340.48 262.058 340.48ZM255.45 332.016V330.048H268.65V332.016H255.45ZM273.749 340V322.72H276.037V337.824H282.517V322.72H284.805V337.824H291.269V322.72H293.557V340H273.749ZM305.658 340.48C303.973 340.48 302.512 340.107 301.274 339.36C300.048 338.613 299.093 337.563 298.41 336.208C297.728 334.853 297.386 333.264 297.386 331.44C297.386 329.552 297.722 327.92 298.394 326.544C299.066 325.168 300.01 324.107 301.226 323.36C302.453 322.613 303.898 322.24 305.562 322.24C307.269 322.24 308.725 322.635 309.93 323.424C311.136 324.203 312.048 325.323 312.666 326.784C313.285 328.245 313.568 329.989 313.514 332.016H311.114V331.184C311.072 328.944 310.586 327.253 309.658 326.112C308.741 324.971 307.397 324.4 305.626 324.4C303.77 324.4 302.346 325.003 301.354 326.208C300.373 327.413 299.882 329.131 299.882 331.36C299.882 333.536 300.373 335.227 301.354 336.432C302.346 337.627 303.749 338.224 305.562 338.224C306.8 338.224 307.877 337.941 308.794 337.376C309.722 336.8 310.453 335.973 310.986 334.896L313.178 335.744C312.496 337.248 311.488 338.416 310.154 339.248C308.832 340.069 307.333 340.48 305.658 340.48ZM299.05 332.016V330.048H312.25V332.016H299.05ZM317.349 340V322.72H319.701V330.224H329.445V322.72H331.797V340H329.445V332.48H319.701V340H317.349ZM350.299 322.72V340H348.011V326.544L338.539 340H336.555V322.72H338.843V336.064L348.331 322.72H350.299ZM362.402 340.48C360.717 340.48 359.255 340.107 358.018 339.36C356.791 338.613 355.837 337.563 355.154 336.208C354.471 334.853 354.13 333.264 354.13 331.44C354.13 329.552 354.466 327.92 355.138 326.544C355.81 325.168 356.754 324.107 357.97 323.36C359.197 322.613 360.642 322.24 362.306 322.24C364.013 322.24 365.469 322.635 366.674 323.424C367.879 324.203 368.791 325.323 369.41 326.784C370.029 328.245 370.311 329.989 370.258 332.016H367.858V331.184C367.815 328.944 367.33 327.253 366.402 326.112C365.485 324.971 364.141 324.4 362.37 324.4C360.514 324.4 359.09 325.003 358.098 326.208C357.117 327.413 356.626 329.131 356.626 331.36C356.626 333.536 357.117 335.227 358.098 336.432C359.09 337.627 360.493 338.224 362.306 338.224C363.543 338.224 364.621 337.941 365.538 337.376C366.466 336.8 367.197 335.973 367.73 334.896L369.922 335.744C369.239 337.248 368.231 338.416 366.898 339.248C365.575 340.069 364.077 340.48 362.402 340.48ZM355.794 332.016V330.048H368.994V332.016H355.794ZM114.075 401.648C113.371 401.648 112.731 401.488 112.155 401.168C111.579 400.837 111.12 400.389 110.779 399.824C110.438 399.259 110.267 398.624 110.267 397.92C110.267 397.205 110.438 396.565 110.779 396C111.12 395.435 111.579 394.992 112.155 394.672C112.731 394.352 113.371 394.192 114.075 394.192C114.736 394.192 115.344 394.352 115.899 394.672C116.454 394.992 116.896 395.435 117.227 396C117.568 396.565 117.739 397.205 117.739 397.92C117.739 398.624 117.568 399.259 117.227 399.824C116.896 400.389 116.454 400.837 115.899 401.168C115.344 401.488 114.736 401.648 114.075 401.648ZM140.24 408V384.96H157.888V408H155.536V387.216H142.592V408H140.24ZM170.425 408.48C168.836 408.48 167.492 408.08 166.393 407.28C165.294 406.469 164.462 405.376 163.897 404C163.332 402.613 163.049 401.061 163.049 399.344C163.049 397.595 163.332 396.037 163.897 394.672C164.473 393.296 165.316 392.213 166.425 391.424C167.534 390.635 168.9 390.24 170.521 390.24C172.1 390.24 173.454 390.64 174.585 391.44C175.716 392.24 176.58 393.328 177.177 394.704C177.785 396.08 178.089 397.627 178.089 399.344C178.089 401.072 177.785 402.624 177.177 404C176.569 405.376 175.694 406.469 174.553 407.28C173.412 408.08 172.036 408.48 170.425 408.48ZM162.649 415.68V390.72H164.761V403.728H165.017V415.68H162.649ZM170.185 406.288C171.39 406.288 172.393 405.984 173.193 405.376C173.993 404.768 174.59 403.941 174.985 402.896C175.39 401.84 175.593 400.656 175.593 399.344C175.593 398.043 175.396 396.869 175.001 395.824C174.606 394.779 174.004 393.952 173.193 393.344C172.393 392.736 171.374 392.432 170.137 392.432C168.932 392.432 167.929 392.725 167.129 393.312C166.34 393.899 165.748 394.715 165.353 395.76C164.958 396.795 164.761 397.989 164.761 399.344C164.761 400.677 164.958 401.872 165.353 402.928C165.748 403.973 166.345 404.795 167.145 405.392C167.945 405.989 168.958 406.288 170.185 406.288ZM186.846 408.48C185.545 408.48 184.452 408.245 183.566 407.776C182.692 407.307 182.036 406.683 181.598 405.904C181.161 405.125 180.942 404.277 180.942 403.36C180.942 402.421 181.129 401.621 181.502 400.96C181.886 400.288 182.404 399.739 183.054 399.312C183.716 398.885 184.478 398.56 185.342 398.336C186.217 398.123 187.182 397.936 188.238 397.776C189.305 397.605 190.345 397.461 191.358 397.344C192.382 397.216 193.278 397.093 194.046 396.976L193.214 397.488C193.246 395.781 192.916 394.517 192.222 393.696C191.529 392.875 190.324 392.464 188.606 392.464C187.422 392.464 186.42 392.731 185.598 393.264C184.788 393.797 184.217 394.64 183.886 395.792L181.598 395.12C181.993 393.573 182.788 392.373 183.982 391.52C185.177 390.667 186.729 390.24 188.638 390.24C190.217 390.24 191.556 390.539 192.654 391.136C193.764 391.723 194.548 392.576 195.006 393.696C195.22 394.197 195.358 394.757 195.422 395.376C195.486 395.995 195.518 396.624 195.518 397.264V408H193.422V403.664L194.03 403.92C193.444 405.403 192.532 406.533 191.294 407.312C190.057 408.091 188.574 408.48 186.846 408.48ZM187.118 406.448C188.217 406.448 189.177 406.251 189.998 405.856C190.82 405.461 191.481 404.923 191.982 404.24C192.484 403.547 192.809 402.768 192.958 401.904C193.086 401.349 193.156 400.741 193.166 400.08C193.177 399.408 193.182 398.907 193.182 398.576L194.078 399.04C193.278 399.147 192.409 399.253 191.47 399.36C190.542 399.467 189.625 399.589 188.718 399.728C187.822 399.867 187.012 400.032 186.286 400.224C185.796 400.363 185.321 400.56 184.862 400.816C184.404 401.061 184.025 401.392 183.726 401.808C183.438 402.224 183.294 402.741 183.294 403.36C183.294 403.861 183.417 404.347 183.662 404.816C183.918 405.285 184.324 405.675 184.878 405.984C185.444 406.293 186.19 406.448 187.118 406.448ZM199.968 408V390.72H207.088C207.45 390.72 207.888 390.741 208.4 390.784C208.922 390.827 209.408 390.907 209.856 391.024C210.826 391.28 211.605 391.803 212.192 392.592C212.789 393.381 213.088 394.331 213.088 395.44C213.088 396.059 212.992 396.613 212.8 397.104C212.618 397.584 212.357 398 212.016 398.352C211.856 398.533 211.68 398.693 211.488 398.832C211.296 398.96 211.109 399.067 210.928 399.152C211.269 399.216 211.637 399.365 212.032 399.6C212.65 399.963 213.12 400.453 213.44 401.072C213.76 401.68 213.92 402.421 213.92 403.296C213.92 404.48 213.637 405.445 213.072 406.192C212.506 406.939 211.749 407.451 210.8 407.728C210.373 407.845 209.909 407.92 209.408 407.952C208.917 407.984 208.453 408 208.016 408H199.968ZM202.336 406H207.904C208.128 406 208.41 405.984 208.752 405.952C209.093 405.909 209.397 405.856 209.664 405.792C210.293 405.632 210.752 405.312 211.04 404.832C211.338 404.341 211.488 403.808 211.488 403.232C211.488 402.475 211.264 401.856 210.816 401.376C210.378 400.885 209.792 400.587 209.056 400.48C208.81 400.427 208.554 400.395 208.288 400.384C208.021 400.373 207.781 400.368 207.568 400.368H202.336V406ZM202.336 398.352H207.168C207.445 398.352 207.754 398.336 208.096 398.304C208.448 398.261 208.752 398.192 209.008 398.096C209.562 397.904 209.968 397.573 210.224 397.104C210.49 396.635 210.624 396.123 210.624 395.568C210.624 394.96 210.48 394.427 210.192 393.968C209.914 393.509 209.493 393.189 208.928 393.008C208.544 392.869 208.128 392.789 207.68 392.768C207.242 392.747 206.965 392.736 206.848 392.736H202.336V398.352ZM217.393 408L217.409 390.72H219.777V399.04L227.489 390.72H230.625L222.529 399.36L231.681 408H228.257L219.777 399.68V408H217.393ZM247.312 390.72V408H245.024V394.544L235.552 408H233.568V390.72H235.856V404.064L245.344 390.72H247.312Z" fill="white"/>
<path d="M169.767 167.733C161 167.733 156.767 164.767 156.833 157.633H165.1C165.233 159.9 166.933 160.467 169.567 160.467C172.567 160.467 174.267 159.633 174.267 158.133C174.267 157.367 173.8 155.4 169.433 155.4H167.9V150.2H169.433C173.733 150.2 174.167 148.533 174.167 147.767C174.167 146.2 172.4 145.533 169.967 145.533C167.333 145.533 165.667 146.3 165.667 148.467H157.467C157.4 141.4 161.867 138.267 170.033 138.267C178.333 138.267 182.5 141.4 182.5 146.167C182.5 149.333 180.7 151.033 178.5 152.1V152.567C181.3 153.4 183.4 155.667 183.4 159.267C183.4 164.6 178.233 167.733 169.767 167.733ZM199.142 167.733C190.076 167.733 184.909 162.567 184.909 153C184.909 143.433 190.076 138.267 199.142 138.267C208.209 138.267 213.376 143.433 213.376 153C213.376 162.567 208.209 167.733 199.142 167.733ZM199.142 159.967C202.542 159.967 204.276 157.533 204.276 153C204.276 148.467 202.542 146.033 199.142 146.033C195.742 146.033 194.009 148.467 194.009 153C194.009 157.533 195.742 159.967 199.142 159.967ZM228.947 167.733C219.88 167.733 214.714 162.567 214.714 153C214.714 143.433 219.88 138.267 228.947 138.267C238.014 138.267 243.18 143.433 243.18 153C243.18 162.567 238.014 167.733 228.947 167.733ZM228.947 159.967C232.347 159.967 234.08 157.533 234.08 153C234.08 148.467 232.347 146.033 228.947 146.033C225.547 146.033 223.814 148.467 223.814 153C223.814 157.533 225.547 159.967 228.947 159.967ZM258.752 167.733C249.685 167.733 244.518 162.567 244.518 153C244.518 143.433 249.685 138.267 258.752 138.267C267.818 138.267 272.985 143.433 272.985 153C272.985 162.567 267.818 167.733 258.752 167.733ZM258.752 159.967C262.152 159.967 263.885 157.533 263.885 153C263.885 148.467 262.152 146.033 258.752 146.033C255.352 146.033 253.618 148.467 253.618 153C253.618 157.533 255.352 159.967 258.752 159.967Z" fill="white"/>
<path d="M285.2 176.6V145.16H290.04L290.88 148H291.16C291.56 147.413 292.04 146.88 292.6 146.4C293.16 145.893 293.827 145.493 294.6 145.2C295.4 144.907 296.32 144.76 297.36 144.76C299.813 144.76 301.8 145.72 303.32 147.64C304.84 149.533 305.6 152.333 305.6 156.04C305.6 158.52 305.24 160.613 304.52 162.32C303.8 164 302.813 165.267 301.56 166.12C300.307 166.973 298.853 167.4 297.2 167.4C296.16 167.4 295.253 167.267 294.48 167C293.733 166.733 293.093 166.387 292.56 165.96C292.027 165.533 291.56 165.08 291.16 164.6H290.84C290.947 165.107 291.027 165.64 291.08 166.2C291.133 166.733 291.16 167.267 291.16 167.8V176.6H285.2ZM295.52 162.56C296.427 162.56 297.173 162.307 297.76 161.8C298.347 161.293 298.787 160.547 299.08 159.56C299.373 158.573 299.52 157.373 299.52 155.96C299.52 153.827 299.187 152.227 298.52 151.16C297.88 150.067 296.853 149.52 295.44 149.52C294.4 149.52 293.573 149.733 292.96 150.16C292.347 150.587 291.893 151.24 291.6 152.12C291.333 152.973 291.187 154.053 291.16 155.36V156C291.16 157.413 291.293 158.613 291.56 159.6C291.827 160.56 292.28 161.293 292.92 161.8C293.56 162.307 294.427 162.56 295.52 162.56ZM310.66 176.6C309.993 176.6 309.393 176.573 308.86 176.52C308.326 176.467 307.86 176.387 307.46 176.28V171.56C307.86 171.613 308.246 171.667 308.62 171.72C309.02 171.773 309.446 171.8 309.9 171.8C310.726 171.8 311.42 171.68 311.98 171.44C312.566 171.227 313.06 170.853 313.46 170.32C313.886 169.787 314.26 169.08 314.58 168.2L315.98 164.28L315.9 169.36L306.3 145.16H312.98L317.02 157.44C317.153 157.84 317.26 158.24 317.34 158.64C317.446 159.04 317.526 159.453 317.58 159.88C317.66 160.307 317.713 160.76 317.74 161.24H317.86C317.94 160.547 318.046 159.893 318.18 159.28C318.313 158.64 318.473 158.027 318.66 157.44L322.62 145.16H328.9L319.74 169.8C319.18 171.347 318.473 172.613 317.62 173.6C316.766 174.613 315.766 175.36 314.62 175.84C313.473 176.347 312.153 176.6 310.66 176.6ZM341.632 167.4C339.286 167.4 337.312 166.907 335.712 165.92C334.112 164.907 332.899 163.387 332.072 161.36C331.246 159.307 330.832 156.72 330.832 153.6C330.832 151.067 331.059 148.853 331.512 146.96C331.966 145.067 332.646 143.467 333.552 142.16C334.459 140.827 335.606 139.76 336.992 138.96C338.406 138.133 340.046 137.547 341.912 137.2C342.472 137.093 343.192 136.973 344.072 136.84C344.952 136.707 345.899 136.573 346.912 136.44C347.926 136.307 348.899 136.2 349.832 136.12L350.392 141.36C349.619 141.44 348.779 141.547 347.872 141.68C346.966 141.787 346.086 141.907 345.232 142.04C344.406 142.147 343.686 142.253 343.072 142.36C341.632 142.627 340.459 143.04 339.552 143.6C338.646 144.16 337.939 144.933 337.432 145.92C336.952 146.907 336.606 148.2 336.392 149.8H336.672C337.179 149 337.766 148.333 338.432 147.8C339.099 147.24 339.859 146.827 340.712 146.56C341.592 146.267 342.552 146.12 343.592 146.12C345.406 146.12 346.952 146.533 348.232 147.36C349.539 148.16 350.526 149.32 351.192 150.84C351.886 152.333 352.232 154.12 352.232 156.2C352.232 158.68 351.779 160.747 350.872 162.4C349.966 164.053 348.712 165.307 347.112 166.16C345.539 166.987 343.712 167.4 341.632 167.4ZM341.672 162.68C342.712 162.68 343.566 162.467 344.232 162.04C344.899 161.613 345.392 160.96 345.712 160.08C346.032 159.2 346.192 158.093 346.192 156.76C346.192 154.76 345.832 153.28 345.112 152.32C344.392 151.333 343.259 150.84 341.712 150.84C340.112 150.84 338.939 151.333 338.192 152.32C337.472 153.28 337.112 154.747 337.112 156.72C337.112 158.053 337.272 159.173 337.592 160.08C337.912 160.96 338.406 161.613 339.072 162.04C339.766 162.467 340.632 162.68 341.672 162.68Z" fill="white"/>
<defs>
<filter id="filter0_d_319_27" x="0.71875" y="0.0623932" width="508" height="555" filterUnits="userSpaceOnUse" color-interpolation-filters="sRGB">
<feFlood flood-opacity="0" result="BackgroundImageFix"/>
<feColorMatrix in="SourceAlpha" type="matrix" values="0 0 0 0 0 0 0 0 0 0 0 0 0 0 0 0 0 0 127 0" result="hardAlpha"/>
<feMorphology radius="4" operator="dilate" in="SourceAlpha" result="effect1_dropShadow_319_27"/>
<feOffset dy="24"/>
<feGaussianBlur stdDeviation="25"/>
<feComposite in2="hardAlpha" operator="out"/>
<feColorMatrix type="matrix" values="0 0 0 0 0.352941 0 0 0 0 0.321569 0 0 0 0 0.501961 0 0 0 0.24 0"/>
<feBlend mode="normal" in2="BackgroundImageFix" result="effect1_dropShadow_319_27"/>
<feBlend mode="normal" in="SourceGraphic" in2="effect1_dropShadow_319_27" result="shape"/>
</filter>
</defs>
</svg>
