<svg width="508" height="555" viewBox="0 0 508 555" fill="none" xmlns="http://www.w3.org/2000/svg">
<g filter="url(#filter0_d_319_26)">
<rect x="54" y="30" width="400" height="447" rx="26" fill="#7D61FD"/>
</g>
<path d="M171.52 93V67.08H192.904V93H188.008V71.652H176.416V93H171.52ZM207.497 93.54C205.565 93.54 203.951 93.09 202.655 92.19C201.359 91.29 200.381 90.066 199.721 88.518C199.073 86.97 198.749 85.224 198.749 83.28C198.749 81.336 199.073 79.59 199.721 78.042C200.369 76.494 201.323 75.27 202.583 74.37C203.843 73.47 205.397 73.02 207.245 73.02C209.105 73.02 210.725 73.464 212.105 74.352C213.485 75.24 214.553 76.458 215.309 78.006C216.077 79.542 216.461 81.3 216.461 83.28C216.461 85.224 216.083 86.97 215.327 88.518C214.583 90.066 213.539 91.29 212.195 92.19C210.851 93.09 209.285 93.54 207.497 93.54ZM197.921 101.64V73.56H202.241V86.88H202.853V101.64H197.921ZM206.705 89.184C207.761 89.184 208.625 88.92 209.297 88.392C209.969 87.864 210.467 87.156 210.791 86.268C211.115 85.368 211.277 84.372 211.277 83.28C211.277 82.2 211.109 81.216 210.773 80.328C210.437 79.428 209.915 78.714 209.207 78.186C208.511 77.646 207.617 77.376 206.525 77.376C205.505 77.376 204.677 77.622 204.041 78.114C203.417 78.606 202.961 79.296 202.673 80.184C202.385 81.072 202.241 82.104 202.241 83.28C202.241 84.456 202.385 85.488 202.673 86.376C202.961 87.264 203.429 87.954 204.077 88.446C204.737 88.938 205.613 89.184 206.705 89.184ZM229.458 93.54C227.466 93.54 225.708 93.114 224.184 92.262C222.672 91.398 221.484 90.216 220.62 88.716C219.768 87.204 219.342 85.476 219.342 83.532C219.342 81.408 219.762 79.56 220.602 77.988C221.442 76.416 222.6 75.198 224.076 74.334C225.552 73.458 227.25 73.02 229.17 73.02C231.21 73.02 232.944 73.5 234.372 74.46C235.8 75.42 236.856 76.77 237.54 78.51C238.224 80.25 238.464 82.296 238.26 84.648H233.418V82.848C233.418 80.868 233.1 79.446 232.464 78.582C231.84 77.706 230.814 77.268 229.386 77.268C227.718 77.268 226.488 77.778 225.696 78.798C224.916 79.806 224.526 81.3 224.526 83.28C224.526 85.092 224.916 86.496 225.696 87.492C226.488 88.476 227.646 88.968 229.17 88.968C230.13 88.968 230.952 88.758 231.636 88.338C232.32 87.918 232.842 87.312 233.202 86.52L238.098 87.924C237.366 89.7 236.208 91.08 234.624 92.064C233.052 93.048 231.33 93.54 229.458 93.54ZM223.014 84.648V81.012H235.902V84.648H223.014ZM241.761 93V73.56H245.721L252.489 86.16L259.257 73.56H263.217V93H258.537V83.316L253.353 93H251.625L246.441 83.316V93H241.761ZM285.586 73.56V93H280.906V81.12L272.122 93H268.234V73.56H272.914V85.044L281.734 73.56H285.586ZM293.113 101.64L296.857 91.344L296.929 94.368L288.469 73.56H293.545L299.233 88.284H298.081L303.733 73.56H308.629L297.649 101.64H293.113ZM311.125 93V73.56H315.085L321.853 86.16L328.621 73.56H332.581V93H327.901V83.316L322.717 93H320.989L315.805 83.316V93H311.125Z" fill="white"/>
<path d="M113.356 265.586C112.652 265.586 112.012 265.426 111.436 265.106C110.86 264.775 110.401 264.327 110.06 263.762C109.719 263.196 109.548 262.562 109.548 261.858C109.548 261.143 109.719 260.503 110.06 259.938C110.401 259.372 110.86 258.93 111.436 258.61C112.012 258.29 112.652 258.13 113.356 258.13C114.017 258.13 114.625 258.29 115.18 258.61C115.735 258.93 116.177 259.372 116.508 259.938C116.849 260.503 117.02 261.143 117.02 261.858C117.02 262.562 116.849 263.196 116.508 263.762C116.177 264.327 115.735 264.775 115.18 265.106C114.625 265.426 114.017 265.586 113.356 265.586ZM138.449 275.778V269.682C139.345 269.682 140.065 269.458 140.609 269.01C141.153 268.551 141.569 267.943 141.857 267.186C142.145 266.428 142.364 265.58 142.513 264.642C142.663 263.692 142.791 262.732 142.897 261.762C143.047 260.343 143.164 258.972 143.249 257.65C143.345 256.327 143.425 254.956 143.489 253.538C143.564 252.119 143.649 250.567 143.745 248.882L157.953 248.898V269.682H159.601V275.778H157.265V271.938H140.801V275.778H138.449ZM142.945 269.682H155.601V251.154L145.937 251.138C145.873 252.439 145.809 253.698 145.745 254.914C145.681 256.13 145.607 257.356 145.521 258.594C145.436 259.831 145.324 261.122 145.185 262.466C145.068 263.692 144.929 264.764 144.769 265.682C144.609 266.599 144.385 267.383 144.097 268.034C143.82 268.684 143.436 269.234 142.945 269.682ZM170.631 272.418C168.914 272.418 167.447 272.028 166.231 271.25C165.015 270.471 164.082 269.394 163.431 268.018C162.78 266.642 162.455 265.063 162.455 263.282C162.455 261.468 162.786 259.879 163.447 258.514C164.108 257.148 165.047 256.087 166.263 255.33C167.49 254.562 168.946 254.178 170.631 254.178C172.359 254.178 173.831 254.567 175.047 255.346C176.274 256.114 177.207 257.186 177.847 258.562C178.498 259.927 178.823 261.5 178.823 263.282C178.823 265.095 178.498 266.69 177.847 268.066C177.196 269.431 176.258 270.498 175.031 271.266C173.804 272.034 172.338 272.418 170.631 272.418ZM170.631 270.162C172.551 270.162 173.98 269.527 174.919 268.258C175.858 266.978 176.327 265.319 176.327 263.282C176.327 261.191 175.852 259.527 174.903 258.29C173.964 257.052 172.54 256.434 170.631 256.434C169.34 256.434 168.274 256.727 167.431 257.314C166.599 257.89 165.975 258.695 165.559 259.73C165.154 260.754 164.951 261.938 164.951 263.282C164.951 265.362 165.431 267.031 166.391 268.29C167.351 269.538 168.764 270.162 170.631 270.162ZM188.719 271.922L188.735 269.778L199.151 260.37C200.047 259.559 200.639 258.791 200.927 258.066C201.225 257.33 201.375 256.562 201.375 255.762C201.375 254.812 201.151 253.954 200.703 253.186C200.255 252.418 199.652 251.81 198.895 251.362C198.137 250.903 197.289 250.674 196.351 250.674C195.369 250.674 194.495 250.908 193.727 251.378C192.959 251.847 192.351 252.466 191.903 253.234C191.465 254.002 191.252 254.839 191.263 255.746H188.863C188.863 254.348 189.193 253.095 189.855 251.986C190.516 250.876 191.412 250.007 192.543 249.378C193.673 248.738 194.953 248.418 196.383 248.418C197.78 248.418 199.033 248.748 200.143 249.41C201.263 250.06 202.143 250.946 202.783 252.066C203.433 253.175 203.759 254.412 203.759 255.778C203.759 256.738 203.641 257.586 203.407 258.322C203.183 259.047 202.825 259.724 202.335 260.354C201.855 260.972 201.241 261.612 200.495 262.274L191.247 270.626L190.879 269.666H203.759V271.922H188.719ZM225.191 271.938V265.506C224.615 265.794 223.906 266.044 223.063 266.258C222.22 266.471 221.314 266.578 220.343 266.578C218.594 266.578 217.175 266.188 216.087 265.41C214.999 264.631 214.29 263.506 213.959 262.034C213.852 261.596 213.778 261.132 213.735 260.642C213.703 260.151 213.682 259.708 213.671 259.314C213.66 258.919 213.655 258.636 213.655 258.466V254.658H216.023V258.466C216.023 258.818 216.034 259.218 216.055 259.666C216.076 260.114 216.124 260.551 216.199 260.978C216.412 262.14 216.892 263.02 217.639 263.618C218.396 264.215 219.458 264.514 220.823 264.514C221.676 264.514 222.482 264.407 223.239 264.194C224.007 263.97 224.658 263.671 225.191 263.298V254.658H227.543V271.938H225.191ZM237.265 272.418C235.964 272.418 234.871 272.183 233.985 271.714C233.111 271.244 232.455 270.62 232.017 269.842C231.58 269.063 231.361 268.215 231.361 267.298C231.361 266.359 231.548 265.559 231.921 264.898C232.305 264.226 232.823 263.676 233.473 263.25C234.135 262.823 234.897 262.498 235.761 262.274C236.636 262.06 237.601 261.874 238.657 261.714C239.724 261.543 240.764 261.399 241.777 261.282C242.801 261.154 243.697 261.031 244.465 260.914L243.633 261.426C243.665 259.719 243.335 258.455 242.641 257.634C241.948 256.812 240.743 256.402 239.025 256.402C237.841 256.402 236.839 256.668 236.017 257.202C235.207 257.735 234.636 258.578 234.305 259.73L232.017 259.058C232.412 257.511 233.207 256.311 234.401 255.458C235.596 254.604 237.148 254.178 239.057 254.178C240.636 254.178 241.975 254.476 243.073 255.074C244.183 255.66 244.967 256.514 245.425 257.634C245.639 258.135 245.777 258.695 245.841 259.314C245.905 259.932 245.937 260.562 245.937 261.202V271.938H243.841V267.602L244.449 267.858C243.863 269.34 242.951 270.471 241.713 271.25C240.476 272.028 238.993 272.418 237.265 272.418ZM237.537 270.386C238.636 270.386 239.596 270.188 240.417 269.794C241.239 269.399 241.9 268.86 242.401 268.178C242.903 267.484 243.228 266.706 243.377 265.842C243.505 265.287 243.575 264.679 243.585 264.018C243.596 263.346 243.601 262.844 243.601 262.514L244.497 262.978C243.697 263.084 242.828 263.191 241.889 263.298C240.961 263.404 240.044 263.527 239.137 263.666C238.241 263.804 237.431 263.97 236.705 264.162C236.215 264.3 235.74 264.498 235.281 264.754C234.823 264.999 234.444 265.33 234.145 265.746C233.857 266.162 233.713 266.679 233.713 267.298C233.713 267.799 233.836 268.284 234.081 268.754C234.337 269.223 234.743 269.612 235.297 269.922C235.863 270.231 236.609 270.386 237.537 270.386ZM257.57 272.418C255.832 272.418 254.36 272.028 253.154 271.25C251.949 270.471 251.032 269.399 250.402 268.034C249.784 266.658 249.464 265.079 249.442 263.298C249.464 261.484 249.794 259.895 250.434 258.53C251.074 257.154 251.997 256.087 253.202 255.33C254.408 254.562 255.869 254.178 257.586 254.178C259.336 254.178 260.856 254.604 262.146 255.458C263.448 256.311 264.338 257.479 264.818 258.962L262.514 259.698C262.109 258.663 261.464 257.863 260.578 257.298C259.704 256.722 258.701 256.434 257.57 256.434C256.301 256.434 255.25 256.727 254.418 257.314C253.586 257.89 252.968 258.695 252.562 259.73C252.157 260.764 251.949 261.954 251.938 263.298C251.96 265.367 252.44 267.031 253.378 268.29C254.317 269.538 255.714 270.162 257.57 270.162C258.744 270.162 259.741 269.895 260.562 269.362C261.394 268.818 262.024 268.028 262.45 266.994L264.818 267.698C264.178 269.234 263.24 270.407 262.002 271.218C260.765 272.018 259.288 272.418 257.57 272.418ZM275.168 272.418C273.451 272.418 271.984 272.028 270.768 271.25C269.552 270.471 268.619 269.394 267.968 268.018C267.318 266.642 266.992 265.063 266.992 263.282C266.992 261.468 267.323 259.879 267.984 258.514C268.646 257.148 269.584 256.087 270.8 255.33C272.027 254.562 273.483 254.178 275.168 254.178C276.896 254.178 278.368 254.567 279.584 255.346C280.811 256.114 281.744 257.186 282.384 258.562C283.035 259.927 283.36 261.5 283.36 263.282C283.36 265.095 283.035 266.69 282.384 268.066C281.734 269.431 280.795 270.498 279.568 271.266C278.342 272.034 276.875 272.418 275.168 272.418ZM275.168 270.162C277.088 270.162 278.518 269.527 279.456 268.258C280.395 266.978 280.864 265.319 280.864 263.282C280.864 261.191 280.39 259.527 279.44 258.29C278.502 257.052 277.078 256.434 275.168 256.434C273.878 256.434 272.811 256.727 271.968 257.314C271.136 257.89 270.512 258.695 270.096 259.73C269.691 260.754 269.488 261.938 269.488 263.282C269.488 265.362 269.968 267.031 270.928 268.29C271.888 269.538 273.302 270.162 275.168 270.162ZM287.174 271.938V254.658H294.294C294.657 254.658 295.094 254.679 295.606 254.722C296.129 254.764 296.614 254.844 297.062 254.962C298.033 255.218 298.811 255.74 299.398 256.53C299.995 257.319 300.294 258.268 300.294 259.378C300.294 259.996 300.198 260.551 300.006 261.042C299.825 261.522 299.563 261.938 299.222 262.29C299.062 262.471 298.886 262.631 298.694 262.77C298.502 262.898 298.315 263.004 298.134 263.09C298.475 263.154 298.843 263.303 299.238 263.538C299.857 263.9 300.326 264.391 300.646 265.01C300.966 265.618 301.126 266.359 301.126 267.234C301.126 268.418 300.843 269.383 300.278 270.13C299.713 270.876 298.955 271.388 298.006 271.666C297.579 271.783 297.115 271.858 296.614 271.89C296.123 271.922 295.659 271.938 295.222 271.938H287.174ZM289.542 269.938H295.11C295.334 269.938 295.617 269.922 295.958 269.89C296.299 269.847 296.603 269.794 296.87 269.73C297.499 269.57 297.958 269.25 298.246 268.77C298.545 268.279 298.694 267.746 298.694 267.17C298.694 266.412 298.47 265.794 298.022 265.314C297.585 264.823 296.998 264.524 296.262 264.418C296.017 264.364 295.761 264.332 295.494 264.322C295.227 264.311 294.987 264.306 294.774 264.306H289.542V269.938ZM289.542 262.29H294.374C294.651 262.29 294.961 262.274 295.302 262.242C295.654 262.199 295.958 262.13 296.214 262.034C296.769 261.842 297.174 261.511 297.43 261.042C297.697 260.572 297.83 260.06 297.83 259.506C297.83 258.898 297.686 258.364 297.398 257.906C297.121 257.447 296.699 257.127 296.134 256.946C295.75 256.807 295.334 256.727 294.886 256.706C294.449 256.684 294.171 256.674 294.054 256.674H289.542V262.29ZM113.356 333.586C112.652 333.586 112.012 333.426 111.436 333.106C110.86 332.775 110.401 332.327 110.06 331.762C109.719 331.196 109.548 330.562 109.548 329.858C109.548 329.143 109.719 328.503 110.06 327.938C110.401 327.372 110.86 326.93 111.436 326.61C112.012 326.29 112.652 326.13 113.356 326.13C114.017 326.13 114.625 326.29 115.18 326.61C115.735 326.93 116.177 327.372 116.508 327.938C116.849 328.503 117.02 329.143 117.02 329.858C117.02 330.562 116.849 331.196 116.508 331.762C116.177 332.327 115.735 332.775 115.18 333.106C114.625 333.426 114.017 333.586 113.356 333.586ZM149.665 339.938V335.474H138.881V333.234L146.593 316.898H149.233L141.521 333.234H149.665V326.514H152.033V333.234H154.545V335.474H152.033V339.938H149.665ZM158.68 339.938L158.696 322.658H161.064V330.978L168.776 322.658H171.912L163.816 331.298L172.968 339.938H169.544L161.064 331.618V339.938H158.68ZM189.337 340.418C187.748 340.418 186.404 340.018 185.305 339.218C184.207 338.407 183.375 337.314 182.809 335.938C182.244 334.551 181.961 332.999 181.961 331.282C181.961 329.532 182.244 327.975 182.809 326.61C183.385 325.234 184.228 324.151 185.337 323.362C186.447 322.572 187.812 322.178 189.433 322.178C191.012 322.178 192.367 322.578 193.497 323.378C194.628 324.178 195.492 325.266 196.089 326.642C196.697 328.018 197.001 329.564 197.001 331.282C197.001 333.01 196.697 334.562 196.089 335.938C195.481 337.314 194.607 338.407 193.465 339.218C192.324 340.018 190.948 340.418 189.337 340.418ZM181.561 347.618V322.658H183.673V335.666H183.929V347.618H181.561ZM189.097 338.226C190.303 338.226 191.305 337.922 192.105 337.314C192.905 336.706 193.503 335.879 193.897 334.834C194.303 333.778 194.505 332.594 194.505 331.282C194.505 329.98 194.308 328.807 193.913 327.762C193.519 326.716 192.916 325.89 192.105 325.282C191.305 324.674 190.287 324.37 189.049 324.37C187.844 324.37 186.841 324.663 186.041 325.25C185.252 325.836 184.66 326.652 184.265 327.698C183.871 328.732 183.673 329.927 183.673 331.282C183.673 332.615 183.871 333.81 184.265 334.866C184.66 335.911 185.257 336.732 186.057 337.33C186.857 337.927 187.871 338.226 189.097 338.226ZM205.759 340.418C204.458 340.418 203.364 340.183 202.479 339.714C201.604 339.244 200.948 338.62 200.511 337.842C200.074 337.063 199.855 336.215 199.855 335.298C199.855 334.359 200.042 333.559 200.415 332.898C200.799 332.226 201.316 331.676 201.967 331.25C202.628 330.823 203.391 330.498 204.255 330.274C205.13 330.06 206.095 329.874 207.151 329.714C208.218 329.543 209.258 329.399 210.271 329.282C211.295 329.154 212.191 329.031 212.959 328.914L212.127 329.426C212.159 327.719 211.828 326.455 211.135 325.634C210.442 324.812 209.236 324.402 207.519 324.402C206.335 324.402 205.332 324.668 204.511 325.202C203.7 325.735 203.13 326.578 202.799 327.73L200.511 327.058C200.906 325.511 201.7 324.311 202.895 323.458C204.09 322.604 205.642 322.178 207.551 322.178C209.13 322.178 210.468 322.476 211.567 323.074C212.676 323.66 213.46 324.514 213.919 325.634C214.132 326.135 214.271 326.695 214.335 327.314C214.399 327.932 214.431 328.562 214.431 329.202V339.938H212.335V335.602L212.943 335.858C212.356 337.34 211.444 338.471 210.207 339.25C208.97 340.028 207.487 340.418 205.759 340.418ZM206.031 338.386C207.13 338.386 208.09 338.188 208.911 337.794C209.732 337.399 210.394 336.86 210.895 336.178C211.396 335.484 211.722 334.706 211.871 333.842C211.999 333.287 212.068 332.679 212.079 332.018C212.09 331.346 212.095 330.844 212.095 330.514L212.991 330.978C212.191 331.084 211.322 331.191 210.383 331.298C209.455 331.404 208.538 331.527 207.631 331.666C206.735 331.804 205.924 331.97 205.199 332.162C204.708 332.3 204.234 332.498 203.775 332.754C203.316 332.999 202.938 333.33 202.639 333.746C202.351 334.162 202.207 334.679 202.207 335.298C202.207 335.799 202.33 336.284 202.575 336.754C202.831 337.223 203.236 337.612 203.791 337.922C204.356 338.231 205.103 338.386 206.031 338.386ZM225.12 340.418C223.382 340.418 221.862 340.039 220.56 339.282C219.27 338.514 218.251 337.452 217.504 336.098L219.392 334.898C220.022 335.964 220.806 336.775 221.744 337.33C222.683 337.884 223.76 338.162 224.976 338.162C226.246 338.162 227.264 337.868 228.032 337.282C228.8 336.695 229.184 335.89 229.184 334.866C229.184 334.162 229.019 333.602 228.688 333.186C228.368 332.77 227.878 332.471 227.216 332.29C226.566 332.108 225.75 332.018 224.768 332.018H222.72V330.002H224.736C225.931 330.002 226.891 329.788 227.616 329.362C228.352 328.924 228.72 328.242 228.72 327.314C228.72 326.332 228.352 325.607 227.616 325.138C226.891 324.658 226.022 324.418 225.008 324.418C223.984 324.418 223.014 324.631 222.096 325.058C221.19 325.474 220.427 326.012 219.808 326.674L218.304 325.09C219.168 324.14 220.176 323.42 221.328 322.93C222.491 322.428 223.776 322.178 225.184 322.178C226.294 322.178 227.296 322.375 228.192 322.77C229.099 323.154 229.814 323.719 230.336 324.466C230.87 325.212 231.136 326.108 231.136 327.154C231.136 328.135 230.896 328.983 230.416 329.698C229.947 330.412 229.28 331.004 228.416 331.474L228.288 330.594C229.035 330.732 229.654 331.031 230.144 331.49C230.635 331.948 230.998 332.498 231.232 333.138C231.467 333.778 231.584 334.428 231.584 335.09C231.584 336.188 231.296 337.138 230.72 337.938C230.155 338.727 229.382 339.34 228.4 339.778C227.43 340.204 226.336 340.418 225.12 340.418ZM243.175 340.418C241.586 340.418 240.242 340.018 239.143 339.218C238.044 338.407 237.212 337.314 236.647 335.938C236.082 334.551 235.799 332.999 235.799 331.282C235.799 329.532 236.082 327.975 236.647 326.61C237.223 325.234 238.066 324.151 239.175 323.362C240.284 322.572 241.65 322.178 243.271 322.178C244.85 322.178 246.204 322.578 247.335 323.378C248.466 324.178 249.33 325.266 249.927 326.642C250.535 328.018 250.839 329.564 250.839 331.282C250.839 333.01 250.535 334.562 249.927 335.938C249.319 337.314 248.444 338.407 247.303 339.218C246.162 340.018 244.786 340.418 243.175 340.418ZM235.399 347.618V322.658H237.511V335.666H237.767V347.618H235.399ZM242.935 338.226C244.14 338.226 245.143 337.922 245.943 337.314C246.743 336.706 247.34 335.879 247.735 334.834C248.14 333.778 248.343 332.594 248.343 331.282C248.343 329.98 248.146 328.807 247.751 327.762C247.356 326.716 246.754 325.89 245.943 325.282C245.143 324.674 244.124 324.37 242.887 324.37C241.682 324.37 240.679 324.663 239.879 325.25C239.09 325.836 238.498 326.652 238.103 327.698C237.708 328.732 237.511 329.927 237.511 331.282C237.511 332.615 237.708 333.81 238.103 334.866C238.498 335.911 239.095 336.732 239.895 337.33C240.695 337.927 241.708 338.226 242.935 338.226ZM261.964 340.418C260.279 340.418 258.818 340.044 257.58 339.298C256.354 338.551 255.399 337.5 254.716 336.146C254.034 334.791 253.692 333.202 253.692 331.378C253.692 329.49 254.028 327.858 254.7 326.482C255.372 325.106 256.316 324.044 257.532 323.298C258.759 322.551 260.204 322.178 261.868 322.178C263.575 322.178 265.031 322.572 266.236 323.362C267.442 324.14 268.354 325.26 268.972 326.722C269.591 328.183 269.874 329.927 269.82 331.954H267.42V331.122C267.378 328.882 266.892 327.191 265.964 326.05C265.047 324.908 263.703 324.338 261.932 324.338C260.076 324.338 258.652 324.94 257.66 326.146C256.679 327.351 256.188 329.068 256.188 331.298C256.188 333.474 256.679 335.164 257.66 336.37C258.652 337.564 260.055 338.162 261.868 338.162C263.106 338.162 264.183 337.879 265.1 337.314C266.028 336.738 266.759 335.911 267.292 334.834L269.484 335.682C268.802 337.186 267.794 338.354 266.46 339.186C265.138 340.007 263.639 340.418 261.964 340.418ZM255.356 331.954V329.986H268.556V331.954H255.356ZM273.655 339.938V322.658H275.943V337.762H282.423V322.658H284.711V337.762H291.175V322.658H293.463V339.938H273.655ZM305.564 340.418C303.879 340.418 302.418 340.044 301.18 339.298C299.954 338.551 298.999 337.5 298.316 336.146C297.634 334.791 297.292 333.202 297.292 331.378C297.292 329.49 297.628 327.858 298.3 326.482C298.972 325.106 299.916 324.044 301.132 323.298C302.359 322.551 303.804 322.178 305.468 322.178C307.175 322.178 308.631 322.572 309.836 323.362C311.042 324.14 311.954 325.26 312.572 326.722C313.191 328.183 313.474 329.927 313.42 331.954H311.02V331.122C310.978 328.882 310.492 327.191 309.564 326.05C308.647 324.908 307.303 324.338 305.532 324.338C303.676 324.338 302.252 324.94 301.26 326.146C300.279 327.351 299.788 329.068 299.788 331.298C299.788 333.474 300.279 335.164 301.26 336.37C302.252 337.564 303.655 338.162 305.468 338.162C306.706 338.162 307.783 337.879 308.7 337.314C309.628 336.738 310.359 335.911 310.892 334.834L313.084 335.682C312.402 337.186 311.394 338.354 310.06 339.186C308.738 340.007 307.239 340.418 305.564 340.418ZM298.956 331.954V329.986H312.156V331.954H298.956ZM317.255 339.938V322.658H319.607V330.162H329.351V322.658H331.703V339.938H329.351V332.418H319.607V339.938H317.255ZM350.205 322.658V339.938H347.917V326.482L338.445 339.938H336.461V322.658H338.749V336.002L348.237 322.658H350.205ZM362.308 340.418C360.623 340.418 359.162 340.044 357.924 339.298C356.698 338.551 355.743 337.5 355.06 336.146C354.378 334.791 354.036 333.202 354.036 331.378C354.036 329.49 354.372 327.858 355.044 326.482C355.716 325.106 356.66 324.044 357.876 323.298C359.103 322.551 360.548 322.178 362.212 322.178C363.919 322.178 365.375 322.572 366.58 323.362C367.786 324.14 368.698 325.26 369.316 326.722C369.935 328.183 370.218 329.927 370.164 331.954H367.764V331.122C367.722 328.882 367.236 327.191 366.308 326.05C365.391 324.908 364.047 324.338 362.276 324.338C360.42 324.338 358.996 324.94 358.004 326.146C357.023 327.351 356.532 329.068 356.532 331.298C356.532 333.474 357.023 335.164 358.004 336.37C358.996 337.564 360.399 338.162 362.212 338.162C363.45 338.162 364.527 337.879 365.444 337.314C366.372 336.738 367.103 335.911 367.636 334.834L369.828 335.682C369.146 337.186 368.138 338.354 366.804 339.186C365.482 340.007 363.983 340.418 362.308 340.418ZM355.7 331.954V329.986H368.9V331.954H355.7ZM113.356 401.586C112.652 401.586 112.012 401.426 111.436 401.106C110.86 400.775 110.401 400.327 110.06 399.762C109.719 399.196 109.548 398.562 109.548 397.858C109.548 397.143 109.719 396.503 110.06 395.938C110.401 395.372 110.86 394.93 111.436 394.61C112.012 394.29 112.652 394.13 113.356 394.13C114.017 394.13 114.625 394.29 115.18 394.61C115.735 394.93 116.177 395.372 116.508 395.938C116.849 396.503 117.02 397.143 117.02 397.858C117.02 398.562 116.849 399.196 116.508 399.762C116.177 400.327 115.735 400.775 115.18 401.106C114.625 401.426 114.017 401.586 113.356 401.586ZM156.945 407.938H154.577V389.042L141.889 407.938H139.521V384.898H141.889V403.778L154.577 384.898H156.945V407.938ZM179.151 407.938H176.783V389.042L164.095 407.938H161.727V384.898H164.095V403.778L176.783 384.898H179.151V407.938Z" fill="white"/>
<path d="M169.581 167.671C159.348 167.671 156.115 163.371 156.115 158.804C156.115 155.571 157.748 153.171 160.915 151.538V151.004C159.248 149.971 158.148 147.971 158.148 145.804C158.148 141.471 161.715 138.204 169.581 138.204C177.448 138.204 181.081 141.471 181.081 145.804C181.081 147.971 179.915 149.971 178.248 151.004V151.538C181.415 153.171 183.048 155.571 183.048 158.804C183.048 163.371 179.815 167.671 169.581 167.671ZM169.581 149.271C171.948 149.271 172.948 148.338 172.948 146.904C172.948 145.338 171.748 144.471 169.581 144.471C167.415 144.471 166.215 145.338 166.215 146.904C166.215 148.338 167.215 149.271 169.581 149.271ZM169.581 160.738C172.981 160.738 174.081 159.338 174.081 157.638C174.081 155.971 172.948 154.538 169.581 154.538C166.215 154.538 165.081 155.971 165.081 157.638C165.081 159.338 166.181 160.738 169.581 160.738ZM198.775 167.671C189.708 167.671 184.542 162.504 184.542 152.938C184.542 143.371 189.708 138.204 198.775 138.204C207.842 138.204 213.008 143.371 213.008 152.938C213.008 162.504 207.842 167.671 198.775 167.671ZM198.775 159.904C202.175 159.904 203.908 157.471 203.908 152.938C203.908 148.404 202.175 145.971 198.775 145.971C195.375 145.971 193.642 148.404 193.642 152.938C193.642 157.471 195.375 159.904 198.775 159.904ZM228.58 167.671C219.513 167.671 214.346 162.504 214.346 152.938C214.346 143.371 219.513 138.204 228.58 138.204C237.646 138.204 242.813 143.371 242.813 152.938C242.813 162.504 237.646 167.671 228.58 167.671ZM228.58 159.904C231.98 159.904 233.713 157.471 233.713 152.938C233.713 148.404 231.98 145.971 228.58 145.971C225.18 145.971 223.446 148.404 223.446 152.938C223.446 157.471 225.18 159.904 228.58 159.904ZM258.384 167.671C249.318 167.671 244.151 162.504 244.151 152.938C244.151 143.371 249.318 138.204 258.384 138.204C267.451 138.204 272.618 143.371 272.618 152.938C272.618 162.504 267.451 167.671 258.384 167.671ZM258.384 159.904C261.784 159.904 263.518 157.471 263.518 152.938C263.518 148.404 261.784 145.971 258.384 145.971C254.984 145.971 253.251 148.404 253.251 152.938C253.251 157.471 254.984 159.904 258.384 159.904Z" fill="white"/>
<path d="M284.481 176.538V145.098H289.321L290.161 147.938H290.441C290.841 147.351 291.321 146.818 291.881 146.338C292.441 145.831 293.108 145.431 293.881 145.138C294.681 144.844 295.601 144.698 296.641 144.698C299.095 144.698 301.081 145.658 302.601 147.578C304.121 149.471 304.881 152.271 304.881 155.978C304.881 158.458 304.521 160.551 303.801 162.258C303.081 163.938 302.095 165.204 300.841 166.058C299.588 166.911 298.135 167.338 296.481 167.338C295.441 167.338 294.535 167.204 293.761 166.938C293.015 166.671 292.375 166.324 291.841 165.898C291.308 165.471 290.841 165.018 290.441 164.538H290.121C290.228 165.044 290.308 165.578 290.361 166.138C290.415 166.671 290.441 167.204 290.441 167.738V176.538H284.481ZM294.801 162.498C295.708 162.498 296.455 162.244 297.041 161.738C297.628 161.231 298.068 160.484 298.361 159.498C298.655 158.511 298.801 157.311 298.801 155.898C298.801 153.764 298.468 152.164 297.801 151.098C297.161 150.004 296.135 149.458 294.721 149.458C293.681 149.458 292.855 149.671 292.241 150.098C291.628 150.524 291.175 151.178 290.881 152.058C290.615 152.911 290.468 153.991 290.441 155.298V155.938C290.441 157.351 290.575 158.551 290.841 159.538C291.108 160.498 291.561 161.231 292.201 161.738C292.841 162.244 293.708 162.498 294.801 162.498ZM309.941 176.538C309.274 176.538 308.674 176.511 308.141 176.458C307.608 176.404 307.141 176.324 306.741 176.218V171.498C307.141 171.551 307.528 171.604 307.901 171.658C308.301 171.711 308.728 171.738 309.181 171.738C310.008 171.738 310.701 171.618 311.261 171.378C311.848 171.164 312.341 170.791 312.741 170.258C313.168 169.724 313.541 169.018 313.861 168.138L315.261 164.218L315.181 169.298L305.581 145.098H312.261L316.301 157.378C316.434 157.778 316.541 158.178 316.621 158.578C316.728 158.978 316.808 159.391 316.861 159.818C316.941 160.244 316.994 160.698 317.021 161.178H317.141C317.221 160.484 317.328 159.831 317.461 159.218C317.594 158.578 317.754 157.964 317.941 157.378L321.901 145.098H328.181L319.021 169.738C318.461 171.284 317.754 172.551 316.901 173.538C316.048 174.551 315.048 175.298 313.901 175.778C312.754 176.284 311.434 176.538 309.941 176.538ZM340.913 167.338C338.567 167.338 336.593 166.844 334.993 165.858C333.393 164.844 332.18 163.324 331.353 161.298C330.527 159.244 330.113 156.658 330.113 153.538C330.113 151.004 330.34 148.791 330.793 146.898C331.247 145.004 331.927 143.404 332.833 142.098C333.74 140.764 334.887 139.698 336.273 138.898C337.687 138.071 339.327 137.484 341.193 137.138C341.753 137.031 342.473 136.911 343.353 136.778C344.233 136.644 345.18 136.511 346.193 136.378C347.207 136.244 348.18 136.138 349.113 136.058L349.673 141.298C348.9 141.378 348.06 141.484 347.153 141.618C346.247 141.724 345.367 141.844 344.513 141.978C343.687 142.084 342.967 142.191 342.353 142.298C340.913 142.564 339.74 142.978 338.833 143.538C337.927 144.098 337.22 144.871 336.713 145.858C336.233 146.844 335.887 148.138 335.673 149.738H335.953C336.46 148.938 337.047 148.271 337.713 147.738C338.38 147.178 339.14 146.764 339.993 146.498C340.873 146.204 341.833 146.058 342.873 146.058C344.687 146.058 346.233 146.471 347.513 147.298C348.82 148.098 349.807 149.258 350.473 150.778C351.167 152.271 351.513 154.058 351.513 156.138C351.513 158.618 351.06 160.684 350.153 162.338C349.247 163.991 347.993 165.244 346.393 166.098C344.82 166.924 342.993 167.338 340.913 167.338ZM340.953 162.618C341.993 162.618 342.847 162.404 343.513 161.978C344.18 161.551 344.673 160.898 344.993 160.018C345.313 159.138 345.473 158.031 345.473 156.698C345.473 154.698 345.113 153.218 344.393 152.258C343.673 151.271 342.54 150.778 340.993 150.778C339.393 150.778 338.22 151.271 337.473 152.258C336.753 153.218 336.393 154.684 336.393 156.658C336.393 157.991 336.553 159.111 336.873 160.018C337.193 160.898 337.687 161.551 338.353 161.978C339.047 162.404 339.913 162.618 340.953 162.618Z" fill="white"/>
<defs>
<filter id="filter0_d_319_26" x="0" y="0" width="508" height="555" filterUnits="userSpaceOnUse" color-interpolation-filters="sRGB">
<feFlood flood-opacity="0" result="BackgroundImageFix"/>
<feColorMatrix in="SourceAlpha" type="matrix" values="0 0 0 0 0 0 0 0 0 0 0 0 0 0 0 0 0 0 127 0" result="hardAlpha"/>
<feMorphology radius="4" operator="dilate" in="SourceAlpha" result="effect1_dropShadow_319_26"/>
<feOffset dy="24"/>
<feGaussianBlur stdDeviation="25"/>
<feComposite in2="hardAlpha" operator="out"/>
<feColorMatrix type="matrix" values="0 0 0 0 0.352941 0 0 0 0 0.321569 0 0 0 0 0.501961 0 0 0 0.24 0"/>
<feBlend mode="normal" in2="BackgroundImageFix" result="effect1_dropShadow_319_26"/>
<feBlend mode="normal" in="SourceGraphic" in2="effect1_dropShadow_319_26" result="shape"/>
</filter>
</defs>
</svg>
