<svg width="508" height="555" viewBox="0 0 508 555" fill="none" xmlns="http://www.w3.org/2000/svg">
<g filter="url(#filter0_d_319_28)">
<rect x="54" y="30" width="400" height="447" rx="26" fill="#7D61FD"/>
</g>
<path d="M175.644 97.54C173.052 97.54 170.814 96.976 168.93 95.848C167.058 94.72 165.612 93.142 164.592 91.114C163.584 89.086 163.08 86.728 163.08 84.04C163.08 81.352 163.584 78.994 164.592 76.966C165.612 74.938 167.058 73.36 168.93 72.232C170.814 71.104 173.052 70.54 175.644 70.54C178.62 70.54 181.116 71.278 183.132 72.754C185.16 74.23 186.588 76.228 187.416 78.748L182.484 80.116C182.004 78.544 181.194 77.326 180.054 76.462C178.914 75.586 177.444 75.148 175.644 75.148C174 75.148 172.626 75.514 171.522 76.246C170.43 76.978 169.608 78.01 169.056 79.342C168.504 80.674 168.228 82.24 168.228 84.04C168.228 85.84 168.504 87.406 169.056 88.738C169.608 90.07 170.43 91.102 171.522 91.834C172.626 92.566 174 92.932 175.644 92.932C177.444 92.932 178.914 92.494 180.054 91.618C181.194 90.742 182.004 89.524 182.484 87.964L187.416 89.332C186.588 91.852 185.16 93.85 183.132 95.326C181.116 96.802 178.62 97.54 175.644 97.54ZM196.131 97V81.88H189.759V77.56H207.399V81.88H201.027V97H196.131ZM215.834 97.54C214.442 97.54 213.26 97.276 212.288 96.748C211.328 96.208 210.596 95.494 210.092 94.606C209.6 93.706 209.354 92.716 209.354 91.636C209.354 90.736 209.492 89.914 209.768 89.17C210.044 88.426 210.488 87.772 211.1 87.208C211.724 86.632 212.558 86.152 213.602 85.768C214.322 85.504 215.18 85.27 216.176 85.066C217.172 84.862 218.3 84.67 219.56 84.49C220.82 84.298 222.206 84.088 223.718 83.86L221.954 84.832C221.954 83.68 221.678 82.834 221.126 82.294C220.574 81.754 219.65 81.484 218.354 81.484C217.634 81.484 216.884 81.658 216.104 82.006C215.324 82.354 214.778 82.972 214.466 83.86L210.038 82.456C210.53 80.848 211.454 79.54 212.81 78.532C214.166 77.524 216.014 77.02 218.354 77.02C220.07 77.02 221.594 77.284 222.926 77.812C224.258 78.34 225.266 79.252 225.95 80.548C226.334 81.268 226.562 81.988 226.634 82.708C226.706 83.428 226.742 84.232 226.742 85.12V97H222.458V93.004L223.07 93.832C222.122 95.14 221.096 96.088 219.992 96.676C218.9 97.252 217.514 97.54 215.834 97.54ZM216.878 93.688C217.778 93.688 218.534 93.532 219.146 93.22C219.77 92.896 220.262 92.53 220.622 92.122C220.994 91.714 221.246 91.372 221.378 91.096C221.63 90.568 221.774 89.956 221.81 89.26C221.858 88.552 221.882 87.964 221.882 87.496L223.322 87.856C221.87 88.096 220.694 88.3 219.794 88.468C218.894 88.624 218.168 88.768 217.616 88.9C217.064 89.032 216.578 89.176 216.158 89.332C215.678 89.524 215.288 89.734 214.988 89.962C214.7 90.178 214.484 90.418 214.34 90.682C214.208 90.946 214.142 91.24 214.142 91.564C214.142 92.008 214.25 92.392 214.466 92.716C214.694 93.028 215.012 93.268 215.42 93.436C215.828 93.604 216.314 93.688 216.878 93.688ZM231.386 97V77.56H236.282V84.976H244.274V77.56H249.17V97H244.274V89.548H236.282V97H231.386ZM252.764 101.32V93.22C253.796 93.22 254.528 92.86 254.96 92.14C255.404 91.42 255.752 90.136 256.004 88.288C256.148 87.22 256.268 86.098 256.364 84.922C256.472 83.746 256.562 82.54 256.634 81.304C256.706 80.068 256.772 78.82 256.832 77.56H271.844V93.22H273.824V101.32H269.216V97H257.372V101.32H252.764ZM259.028 93.22H266.948V81.34H261.08C261.044 82 261.002 82.66 260.954 83.32C260.918 83.98 260.87 84.634 260.81 85.282C260.762 85.93 260.714 86.56 260.666 87.172C260.618 87.772 260.564 88.348 260.504 88.9C260.396 89.956 260.246 90.814 260.054 91.474C259.862 92.134 259.52 92.716 259.028 93.22ZM282.807 97.54C281.415 97.54 280.233 97.276 279.261 96.748C278.301 96.208 277.569 95.494 277.065 94.606C276.573 93.706 276.327 92.716 276.327 91.636C276.327 90.736 276.465 89.914 276.741 89.17C277.017 88.426 277.461 87.772 278.073 87.208C278.697 86.632 279.531 86.152 280.575 85.768C281.295 85.504 282.153 85.27 283.149 85.066C284.145 84.862 285.273 84.67 286.533 84.49C287.793 84.298 289.179 84.088 290.691 83.86L288.927 84.832C288.927 83.68 288.651 82.834 288.099 82.294C287.547 81.754 286.623 81.484 285.327 81.484C284.607 81.484 283.857 81.658 283.077 82.006C282.297 82.354 281.751 82.972 281.439 83.86L277.011 82.456C277.503 80.848 278.427 79.54 279.783 78.532C281.139 77.524 282.987 77.02 285.327 77.02C287.043 77.02 288.567 77.284 289.899 77.812C291.231 78.34 292.239 79.252 292.923 80.548C293.307 81.268 293.535 81.988 293.607 82.708C293.679 83.428 293.715 84.232 293.715 85.12V97H289.431V93.004L290.043 93.832C289.095 95.14 288.069 96.088 286.965 96.676C285.873 97.252 284.487 97.54 282.807 97.54ZM283.851 93.688C284.751 93.688 285.507 93.532 286.119 93.22C286.743 92.896 287.235 92.53 287.595 92.122C287.967 91.714 288.219 91.372 288.351 91.096C288.603 90.568 288.747 89.956 288.783 89.26C288.831 88.552 288.855 87.964 288.855 87.496L290.295 87.856C288.843 88.096 287.667 88.3 286.767 88.468C285.867 88.624 285.141 88.768 284.589 88.9C284.037 89.032 283.551 89.176 283.131 89.332C282.651 89.524 282.261 89.734 281.961 89.962C281.673 90.178 281.457 90.418 281.313 90.682C281.181 90.946 281.115 91.24 281.115 91.564C281.115 92.008 281.223 92.392 281.439 92.716C281.667 93.028 281.985 93.268 282.393 93.436C282.801 93.604 283.287 93.688 283.851 93.688ZM307.935 97.54C306.003 97.54 304.389 97.09 303.093 96.19C301.797 95.29 300.819 94.066 300.159 92.518C299.511 90.97 299.187 89.224 299.187 87.28C299.187 85.336 299.511 83.59 300.159 82.042C300.807 80.494 301.761 79.27 303.021 78.37C304.281 77.47 305.835 77.02 307.683 77.02C309.543 77.02 311.163 77.464 312.543 78.352C313.923 79.24 314.991 80.458 315.747 82.006C316.515 83.542 316.899 85.3 316.899 87.28C316.899 89.224 316.521 90.97 315.765 92.518C315.021 94.066 313.977 95.29 312.633 96.19C311.289 97.09 309.723 97.54 307.935 97.54ZM298.359 105.64V77.56H302.679V90.88H303.291V105.64H298.359ZM307.143 93.184C308.199 93.184 309.063 92.92 309.735 92.392C310.407 91.864 310.905 91.156 311.229 90.268C311.553 89.368 311.715 88.372 311.715 87.28C311.715 86.2 311.547 85.216 311.211 84.328C310.875 83.428 310.353 82.714 309.645 82.186C308.949 81.646 308.055 81.376 306.963 81.376C305.943 81.376 305.115 81.622 304.479 82.114C303.855 82.606 303.399 83.296 303.111 84.184C302.823 85.072 302.679 86.104 302.679 87.28C302.679 88.456 302.823 89.488 303.111 90.376C303.399 91.264 303.867 91.954 304.515 92.446C305.175 92.938 306.051 93.184 307.143 93.184ZM325.612 97V81.88H319.24V77.56H336.88V81.88H330.508V97H325.612Z" fill="white"/>
<path d="M113.356 265.586C112.652 265.586 112.012 265.426 111.436 265.106C110.86 264.775 110.401 264.327 110.06 263.762C109.719 263.196 109.548 262.562 109.548 261.858C109.548 261.143 109.719 260.503 110.06 259.938C110.401 259.372 110.86 258.93 111.436 258.61C112.012 258.29 112.652 258.13 113.356 258.13C114.017 258.13 114.625 258.29 115.18 258.61C115.735 258.93 116.177 259.372 116.508 259.938C116.849 260.503 117.02 261.143 117.02 261.858C117.02 262.562 116.849 263.196 116.508 263.762C116.177 264.327 115.735 264.775 115.18 265.106C114.625 265.426 114.017 265.586 113.356 265.586ZM138.449 275.778V269.682C139.345 269.682 140.065 269.458 140.609 269.01C141.153 268.551 141.569 267.943 141.857 267.186C142.145 266.428 142.364 265.58 142.513 264.642C142.663 263.692 142.791 262.732 142.897 261.762C143.047 260.343 143.164 258.972 143.249 257.65C143.345 256.327 143.425 254.956 143.489 253.538C143.564 252.119 143.649 250.567 143.745 248.882L157.953 248.898V269.682H159.601V275.778H157.265V271.938H140.801V275.778H138.449ZM142.945 269.682H155.601V251.154L145.937 251.138C145.873 252.439 145.809 253.698 145.745 254.914C145.681 256.13 145.607 257.356 145.521 258.594C145.436 259.831 145.324 261.122 145.185 262.466C145.068 263.692 144.929 264.764 144.769 265.682C144.609 266.599 144.385 267.383 144.097 268.034C143.82 268.684 143.436 269.234 142.945 269.682ZM170.631 272.418C168.914 272.418 167.447 272.028 166.231 271.25C165.015 270.471 164.082 269.394 163.431 268.018C162.78 266.642 162.455 265.063 162.455 263.282C162.455 261.468 162.786 259.879 163.447 258.514C164.108 257.148 165.047 256.087 166.263 255.33C167.49 254.562 168.946 254.178 170.631 254.178C172.359 254.178 173.831 254.567 175.047 255.346C176.274 256.114 177.207 257.186 177.847 258.562C178.498 259.927 178.823 261.5 178.823 263.282C178.823 265.095 178.498 266.69 177.847 268.066C177.196 269.431 176.258 270.498 175.031 271.266C173.804 272.034 172.338 272.418 170.631 272.418ZM170.631 270.162C172.551 270.162 173.98 269.527 174.919 268.258C175.858 266.978 176.327 265.319 176.327 263.282C176.327 261.191 175.852 259.527 174.903 258.29C173.964 257.052 172.54 256.434 170.631 256.434C169.34 256.434 168.274 256.727 167.431 257.314C166.599 257.89 165.975 258.695 165.559 259.73C165.154 260.754 164.951 261.938 164.951 263.282C164.951 265.362 165.431 267.031 166.391 268.29C167.351 269.538 168.764 270.162 170.631 270.162ZM188.719 271.922L188.735 269.778L199.151 260.37C200.047 259.559 200.639 258.791 200.927 258.066C201.225 257.33 201.375 256.562 201.375 255.762C201.375 254.812 201.151 253.954 200.703 253.186C200.255 252.418 199.652 251.81 198.895 251.362C198.137 250.903 197.289 250.674 196.351 250.674C195.369 250.674 194.495 250.908 193.727 251.378C192.959 251.847 192.351 252.466 191.903 253.234C191.465 254.002 191.252 254.839 191.263 255.746H188.863C188.863 254.348 189.193 253.095 189.855 251.986C190.516 250.876 191.412 250.007 192.543 249.378C193.673 248.738 194.953 248.418 196.383 248.418C197.78 248.418 199.033 248.748 200.143 249.41C201.263 250.06 202.143 250.946 202.783 252.066C203.433 253.175 203.759 254.412 203.759 255.778C203.759 256.738 203.641 257.586 203.407 258.322C203.183 259.047 202.825 259.724 202.335 260.354C201.855 260.972 201.241 261.612 200.495 262.274L191.247 270.626L190.879 269.666H203.759V271.922H188.719ZM215.429 272.418C214.01 272.418 212.73 272.087 211.589 271.426C210.458 270.764 209.562 269.868 208.901 268.738C208.239 267.596 207.909 266.316 207.909 264.898V255.938C207.909 254.519 208.239 253.244 208.901 252.114C209.562 250.972 210.458 250.071 211.589 249.41C212.73 248.748 214.01 248.418 215.429 248.418C216.847 248.418 218.122 248.748 219.253 249.41C220.394 250.071 221.295 250.972 221.957 252.114C222.618 253.244 222.949 254.519 222.949 255.938V264.898C222.949 266.316 222.618 267.596 221.957 268.738C221.295 269.868 220.394 270.764 219.253 271.426C218.122 272.087 216.847 272.418 215.429 272.418ZM215.429 270.146C216.378 270.146 217.242 269.916 218.021 269.458C218.799 268.988 219.418 268.364 219.877 267.586C220.335 266.807 220.565 265.948 220.565 265.01V255.826C220.565 254.876 220.335 254.012 219.877 253.234C219.418 252.455 218.799 251.836 218.021 251.378C217.242 250.908 216.378 250.674 215.429 250.674C214.479 250.674 213.615 250.908 212.837 251.378C212.058 251.836 211.439 252.455 210.981 253.234C210.522 254.012 210.293 254.876 210.293 255.826V265.01C210.293 265.948 210.522 266.807 210.981 267.586C211.439 268.364 212.058 268.988 212.837 269.458C213.615 269.916 214.479 270.146 215.429 270.146ZM234.43 271.938V254.658H236.526L243.262 268.802L250.014 254.658H252.094V271.938H249.822V259.682L244.014 271.938H242.526L236.718 259.682V271.938H234.43ZM270.599 254.658V271.938H268.311V258.482L258.839 271.938H256.855V254.658H259.143V268.002L268.631 254.658H270.599ZM275.374 271.938V254.658H277.726V262.162H287.47V254.658H289.822V271.938H287.47V264.418H277.726V271.938H275.374ZM297.06 279.618L300.404 270.546L300.452 273.234L292.884 254.658H295.38L301.588 270.194H300.564L306.292 254.658H308.692L299.412 279.618H297.06ZM316.459 271.938V256.834H310.331V254.658H324.939V256.834H318.811V271.938H316.459ZM113.356 333.586C112.652 333.586 112.012 333.426 111.436 333.106C110.86 332.775 110.401 332.327 110.06 331.762C109.719 331.196 109.548 330.562 109.548 329.858C109.548 329.143 109.719 328.503 110.06 327.938C110.401 327.372 110.86 326.93 111.436 326.61C112.012 326.29 112.652 326.13 113.356 326.13C114.017 326.13 114.625 326.29 115.18 326.61C115.735 326.93 116.177 327.372 116.508 327.938C116.849 328.503 117.02 329.143 117.02 329.858C117.02 330.562 116.849 331.196 116.508 331.762C116.177 332.327 115.735 332.775 115.18 333.106C114.625 333.426 114.017 333.586 113.356 333.586ZM139.521 339.938V316.898H141.873V327.282H154.609V316.898H156.945V339.938H154.609V329.538H141.873V339.938H139.521ZM161.727 339.938V316.898H168.719C168.965 316.898 169.381 316.903 169.967 316.914C170.565 316.924 171.135 316.967 171.679 317.042C173.429 317.287 174.89 317.938 176.063 318.994C177.237 320.05 178.117 321.394 178.703 323.026C179.29 324.658 179.583 326.455 179.583 328.418C179.583 330.38 179.29 332.178 178.703 333.81C178.117 335.442 177.237 336.786 176.063 337.842C174.89 338.898 173.429 339.548 171.679 339.794C171.146 339.858 170.575 339.9 169.967 339.922C169.359 339.932 168.943 339.938 168.719 339.938H161.727ZM164.159 337.682H168.719C169.157 337.682 169.626 337.671 170.127 337.65C170.639 337.618 171.077 337.564 171.439 337.49C172.783 337.255 173.866 336.711 174.687 335.858C175.519 335.004 176.127 333.938 176.511 332.658C176.895 331.367 177.087 329.954 177.087 328.418C177.087 326.871 176.895 325.452 176.511 324.162C176.127 322.871 175.519 321.804 174.687 320.962C173.855 320.119 172.773 319.58 171.439 319.346C171.077 319.271 170.634 319.223 170.111 319.202C169.599 319.17 169.135 319.154 168.719 319.154H164.159V337.682ZM197.994 340.418C196.404 340.418 195.06 340.018 193.962 339.218C192.863 338.407 192.031 337.314 191.466 335.938C190.9 334.551 190.618 332.999 190.618 331.282C190.618 329.532 190.9 327.975 191.466 326.61C192.042 325.234 192.884 324.151 193.994 323.362C195.103 322.572 196.468 322.178 198.09 322.178C199.668 322.178 201.023 322.578 202.154 323.378C203.284 324.178 204.148 325.266 204.746 326.642C205.354 328.018 205.658 329.564 205.658 331.282C205.658 333.01 205.354 334.562 204.746 335.938C204.138 337.314 203.263 338.407 202.122 339.218C200.98 340.018 199.604 340.418 197.994 340.418ZM190.218 347.618V322.658H192.33V335.666H192.586V347.618H190.218ZM197.754 338.226C198.959 338.226 199.962 337.922 200.762 337.314C201.562 336.706 202.159 335.879 202.554 334.834C202.959 333.778 203.162 332.594 203.162 331.282C203.162 329.98 202.964 328.807 202.57 327.762C202.175 326.716 201.572 325.89 200.762 325.282C199.962 324.674 198.943 324.37 197.706 324.37C196.5 324.37 195.498 324.663 194.698 325.25C193.908 325.836 193.316 326.652 192.922 327.698C192.527 328.732 192.33 329.927 192.33 331.282C192.33 332.615 192.527 333.81 192.922 334.866C193.316 335.911 193.914 336.732 194.714 337.33C195.514 337.927 196.527 338.226 197.754 338.226ZM214.415 340.418C213.114 340.418 212.021 340.183 211.135 339.714C210.261 339.244 209.605 338.62 209.167 337.842C208.73 337.063 208.511 336.215 208.511 335.298C208.511 334.359 208.698 333.559 209.071 332.898C209.455 332.226 209.973 331.676 210.623 331.25C211.285 330.823 212.047 330.498 212.911 330.274C213.786 330.06 214.751 329.874 215.807 329.714C216.874 329.543 217.914 329.399 218.927 329.282C219.951 329.154 220.847 329.031 221.615 328.914L220.783 329.426C220.815 327.719 220.485 326.455 219.791 325.634C219.098 324.812 217.893 324.402 216.175 324.402C214.991 324.402 213.989 324.668 213.167 325.202C212.357 325.735 211.786 326.578 211.455 327.73L209.167 327.058C209.562 325.511 210.357 324.311 211.551 323.458C212.746 322.604 214.298 322.178 216.207 322.178C217.786 322.178 219.125 322.476 220.223 323.074C221.333 323.66 222.117 324.514 222.575 325.634C222.789 326.135 222.927 326.695 222.991 327.314C223.055 327.932 223.087 328.562 223.087 329.202V339.938H220.991V335.602L221.599 335.858C221.013 337.34 220.101 338.471 218.863 339.25C217.626 340.028 216.143 340.418 214.415 340.418ZM214.687 338.386C215.786 338.386 216.746 338.188 217.567 337.794C218.389 337.399 219.05 336.86 219.551 336.178C220.053 335.484 220.378 334.706 220.527 333.842C220.655 333.287 220.725 332.679 220.735 332.018C220.746 331.346 220.751 330.844 220.751 330.514L221.647 330.978C220.847 331.084 219.978 331.191 219.039 331.298C218.111 331.404 217.194 331.527 216.287 331.666C215.391 331.804 214.581 331.97 213.855 332.162C213.365 332.3 212.89 332.498 212.431 332.754C211.973 332.999 211.594 333.33 211.295 333.746C211.007 334.162 210.863 334.679 210.863 335.298C210.863 335.799 210.986 336.284 211.231 336.754C211.487 337.223 211.893 337.612 212.447 337.922C213.013 338.231 213.759 338.386 214.687 338.386ZM233.776 340.418C232.038 340.418 230.518 340.039 229.216 339.282C227.926 338.514 226.907 337.452 226.16 336.098L228.048 334.898C228.678 335.964 229.462 336.775 230.4 337.33C231.339 337.884 232.416 338.162 233.632 338.162C234.902 338.162 235.92 337.868 236.688 337.282C237.456 336.695 237.84 335.89 237.84 334.866C237.84 334.162 237.675 333.602 237.344 333.186C237.024 332.77 236.534 332.471 235.872 332.29C235.222 332.108 234.406 332.018 233.424 332.018H231.376V330.002H233.392C234.587 330.002 235.547 329.788 236.272 329.362C237.008 328.924 237.376 328.242 237.376 327.314C237.376 326.332 237.008 325.607 236.272 325.138C235.547 324.658 234.678 324.418 233.664 324.418C232.64 324.418 231.67 324.631 230.752 325.058C229.846 325.474 229.083 326.012 228.464 326.674L226.96 325.09C227.824 324.14 228.832 323.42 229.984 322.93C231.147 322.428 232.432 322.178 233.84 322.178C234.95 322.178 235.952 322.375 236.848 322.77C237.755 323.154 238.47 323.719 238.992 324.466C239.526 325.212 239.792 326.108 239.792 327.154C239.792 328.135 239.552 328.983 239.072 329.698C238.603 330.412 237.936 331.004 237.072 331.474L236.944 330.594C237.691 330.732 238.31 331.031 238.8 331.49C239.291 331.948 239.654 332.498 239.888 333.138C240.123 333.778 240.24 334.428 240.24 335.09C240.24 336.188 239.952 337.138 239.376 337.938C238.811 338.727 238.038 339.34 237.056 339.778C236.086 340.204 234.992 340.418 233.776 340.418ZM251.831 340.418C250.242 340.418 248.898 340.018 247.799 339.218C246.701 338.407 245.869 337.314 245.303 335.938C244.738 334.551 244.455 332.999 244.455 331.282C244.455 329.532 244.738 327.975 245.303 326.61C245.879 325.234 246.722 324.151 247.831 323.362C248.941 322.572 250.306 322.178 251.927 322.178C253.506 322.178 254.861 322.578 255.991 323.378C257.122 324.178 257.986 325.266 258.583 326.642C259.191 328.018 259.495 329.564 259.495 331.282C259.495 333.01 259.191 334.562 258.583 335.938C257.975 337.314 257.101 338.407 255.959 339.218C254.818 340.018 253.442 340.418 251.831 340.418ZM244.055 347.618V322.658H246.167V335.666H246.423V347.618H244.055ZM251.591 338.226C252.797 338.226 253.799 337.922 254.599 337.314C255.399 336.706 255.997 335.879 256.391 334.834C256.797 333.778 256.999 332.594 256.999 331.282C256.999 329.98 256.802 328.807 256.407 327.762C256.013 326.716 255.41 325.89 254.599 325.282C253.799 324.674 252.781 324.37 251.543 324.37C250.338 324.37 249.335 324.663 248.535 325.25C247.746 325.836 247.154 326.652 246.759 327.698C246.365 328.732 246.167 329.927 246.167 331.282C246.167 332.615 246.365 333.81 246.759 334.866C247.154 335.911 247.751 336.732 248.551 337.33C249.351 337.927 250.365 338.226 251.591 338.226ZM270.621 340.418C268.935 340.418 267.474 340.044 266.237 339.298C265.01 338.551 264.055 337.5 263.373 336.146C262.69 334.791 262.349 333.202 262.349 331.378C262.349 329.49 262.685 327.858 263.357 326.482C264.029 325.106 264.973 324.044 266.189 323.298C267.415 322.551 268.861 322.178 270.525 322.178C272.231 322.178 273.687 322.572 274.893 323.362C276.098 324.14 277.01 325.26 277.629 326.722C278.247 328.183 278.53 329.927 278.477 331.954H276.077V331.122C276.034 328.882 275.549 327.191 274.621 326.05C273.703 324.908 272.359 324.338 270.589 324.338C268.733 324.338 267.309 324.94 266.317 326.146C265.335 327.351 264.845 329.068 264.845 331.298C264.845 333.474 265.335 335.164 266.317 336.37C267.309 337.564 268.711 338.162 270.525 338.162C271.762 338.162 272.839 337.879 273.757 337.314C274.685 336.738 275.415 335.911 275.949 334.834L278.141 335.682C277.458 337.186 276.45 338.354 275.117 339.186C273.794 340.007 272.295 340.418 270.621 340.418ZM264.013 331.954V329.986H277.213V331.954H264.013ZM282.311 339.938V322.658H284.599V337.762H291.079V322.658H293.367V337.762H299.831V322.658H302.119V339.938H282.311ZM314.221 340.418C312.535 340.418 311.074 340.044 309.837 339.298C308.61 338.551 307.655 337.5 306.973 336.146C306.29 334.791 305.949 333.202 305.949 331.378C305.949 329.49 306.285 327.858 306.957 326.482C307.629 325.106 308.573 324.044 309.789 323.298C311.015 322.551 312.461 322.178 314.125 322.178C315.831 322.178 317.287 322.572 318.493 323.362C319.698 324.14 320.61 325.26 321.229 326.722C321.847 328.183 322.13 329.927 322.077 331.954H319.677V331.122C319.634 328.882 319.149 327.191 318.221 326.05C317.303 324.908 315.959 324.338 314.189 324.338C312.333 324.338 310.909 324.94 309.917 326.146C308.935 327.351 308.445 329.068 308.445 331.298C308.445 333.474 308.935 335.164 309.917 336.37C310.909 337.564 312.311 338.162 314.125 338.162C315.362 338.162 316.439 337.879 317.357 337.314C318.285 336.738 319.015 335.911 319.549 334.834L321.741 335.682C321.058 337.186 320.05 338.354 318.717 339.186C317.394 340.007 315.895 340.418 314.221 340.418ZM307.613 331.954V329.986H320.813V331.954H307.613ZM325.911 339.938V322.658H328.263V330.162H338.007V322.658H340.359V339.938H338.007V332.418H328.263V339.938H325.911ZM358.862 322.658V339.938H356.574V326.482L347.102 339.938H345.118V322.658H347.406V336.002L356.894 322.658H358.862ZM370.964 340.418C369.279 340.418 367.818 340.044 366.58 339.298C365.354 338.551 364.399 337.5 363.716 336.146C363.034 334.791 362.692 333.202 362.692 331.378C362.692 329.49 363.028 327.858 363.7 326.482C364.372 325.106 365.316 324.044 366.532 323.298C367.759 322.551 369.204 322.178 370.868 322.178C372.575 322.178 374.031 322.572 375.236 323.362C376.442 324.14 377.354 325.26 377.972 326.722C378.591 328.183 378.874 329.927 378.82 331.954H376.42V331.122C376.378 328.882 375.892 327.191 374.964 326.05C374.047 324.908 372.703 324.338 370.932 324.338C369.076 324.338 367.652 324.94 366.66 326.146C365.679 327.351 365.188 329.068 365.188 331.298C365.188 333.474 365.679 335.164 366.66 336.37C367.652 337.564 369.055 338.162 370.868 338.162C372.106 338.162 373.183 337.879 374.1 337.314C375.028 336.738 375.759 335.911 376.292 334.834L378.484 335.682C377.802 337.186 376.794 338.354 375.46 339.186C374.138 340.007 372.639 340.418 370.964 340.418ZM364.356 331.954V329.986H377.556V331.954H364.356ZM113.356 401.586C112.652 401.586 112.012 401.426 111.436 401.106C110.86 400.775 110.401 400.327 110.06 399.762C109.719 399.196 109.548 398.562 109.548 397.858C109.548 397.143 109.719 396.503 110.06 395.938C110.401 395.372 110.86 394.93 111.436 394.61C112.012 394.29 112.652 394.13 113.356 394.13C114.017 394.13 114.625 394.29 115.18 394.61C115.735 394.93 116.177 395.372 116.508 395.938C116.849 396.503 117.02 397.143 117.02 397.858C117.02 398.562 116.849 399.196 116.508 399.762C116.177 400.327 115.735 400.775 115.18 401.106C114.625 401.426 114.017 401.586 113.356 401.586ZM157.537 410.93V407.938H139.521V384.898H141.873V405.762H155.089V385.106H157.441V405.762H159.889V410.93H157.537ZM162.743 407.938V390.658H169.863C170.225 390.658 170.663 390.679 171.175 390.722C171.697 390.764 172.183 390.844 172.631 390.962C173.601 391.218 174.38 391.74 174.967 392.53C175.564 393.319 175.863 394.268 175.863 395.378C175.863 395.996 175.767 396.551 175.575 397.042C175.393 397.522 175.132 397.938 174.791 398.29C174.631 398.471 174.455 398.631 174.263 398.77C174.071 398.898 173.884 399.004 173.703 399.09C174.044 399.154 174.412 399.303 174.807 399.538C175.425 399.9 175.895 400.391 176.215 401.01C176.535 401.618 176.695 402.359 176.695 403.234C176.695 404.418 176.412 405.383 175.847 406.13C175.281 406.876 174.524 407.388 173.575 407.666C173.148 407.783 172.684 407.858 172.183 407.89C171.692 407.922 171.228 407.938 170.791 407.938H162.743ZM165.111 405.938H170.679C170.903 405.938 171.185 405.922 171.527 405.89C171.868 405.847 172.172 405.794 172.439 405.73C173.068 405.57 173.527 405.25 173.815 404.77C174.113 404.279 174.263 403.746 174.263 403.17C174.263 402.412 174.039 401.794 173.591 401.314C173.153 400.823 172.567 400.524 171.831 400.418C171.585 400.364 171.329 400.332 171.063 400.322C170.796 400.311 170.556 400.306 170.343 400.306H165.111V405.938ZM165.111 398.29H169.943C170.22 398.29 170.529 398.274 170.871 398.242C171.223 398.199 171.527 398.13 171.783 398.034C172.337 397.842 172.743 397.511 172.999 397.042C173.265 396.572 173.399 396.06 173.399 395.506C173.399 394.898 173.255 394.364 172.967 393.906C172.689 393.447 172.268 393.127 171.703 392.946C171.319 392.807 170.903 392.727 170.455 392.706C170.017 392.684 169.74 392.674 169.623 392.674H165.111V398.29ZM187.496 408.418C185.81 408.418 184.349 408.044 183.112 407.298C181.885 406.551 180.93 405.5 180.248 404.146C179.565 402.791 179.224 401.202 179.224 399.378C179.224 397.49 179.56 395.858 180.232 394.482C180.904 393.106 181.848 392.044 183.064 391.298C184.29 390.551 185.736 390.178 187.4 390.178C189.106 390.178 190.562 390.572 191.768 391.362C192.973 392.14 193.885 393.26 194.504 394.722C195.122 396.183 195.405 397.927 195.352 399.954H192.952V399.122C192.909 396.882 192.424 395.191 191.496 394.05C190.578 392.908 189.234 392.338 187.464 392.338C185.608 392.338 184.184 392.94 183.192 394.146C182.21 395.351 181.72 397.068 181.72 399.298C181.72 401.474 182.21 403.164 183.192 404.37C184.184 405.564 185.586 406.162 187.4 406.162C188.637 406.162 189.714 405.879 190.632 405.314C191.56 404.738 192.29 403.911 192.824 402.834L195.016 403.682C194.333 405.186 193.325 406.354 191.992 407.186C190.669 408.007 189.17 408.418 187.496 408.418ZM180.888 399.954V397.986H194.088V399.954H180.888ZM203.672 407.938V392.834H197.544V390.658H212.152V392.834H206.024V407.938H203.672ZM222.406 408.418C220.689 408.418 219.222 408.028 218.006 407.25C216.79 406.471 215.857 405.394 215.206 404.018C214.555 402.642 214.23 401.063 214.23 399.282C214.23 397.468 214.561 395.879 215.222 394.514C215.883 393.148 216.822 392.087 218.038 391.33C219.265 390.562 220.721 390.178 222.406 390.178C224.134 390.178 225.606 390.567 226.822 391.346C228.049 392.114 228.982 393.186 229.622 394.562C230.273 395.927 230.598 397.5 230.598 399.282C230.598 401.095 230.273 402.69 229.622 404.066C228.971 405.431 228.033 406.498 226.806 407.266C225.579 408.034 224.113 408.418 222.406 408.418ZM222.406 406.162C224.326 406.162 225.755 405.527 226.694 404.258C227.633 402.978 228.102 401.319 228.102 399.282C228.102 397.191 227.627 395.527 226.678 394.29C225.739 393.052 224.315 392.434 222.406 392.434C221.115 392.434 220.049 392.727 219.206 393.314C218.374 393.89 217.75 394.695 217.334 395.73C216.929 396.754 216.726 397.938 216.726 399.282C216.726 401.362 217.206 403.031 218.166 404.29C219.126 405.538 220.539 406.162 222.406 406.162ZM234.411 407.938L234.427 390.658H236.795V398.978L244.507 390.658H247.643L239.547 399.298L248.699 407.938H245.275L236.795 399.618V407.938H234.411ZM257.506 408.418C255.789 408.418 254.322 408.028 253.106 407.25C251.89 406.471 250.957 405.394 250.306 404.018C249.655 402.642 249.33 401.063 249.33 399.282C249.33 397.468 249.661 395.879 250.322 394.514C250.983 393.148 251.922 392.087 253.138 391.33C254.365 390.562 255.821 390.178 257.506 390.178C259.234 390.178 260.706 390.567 261.922 391.346C263.149 392.114 264.082 393.186 264.722 394.562C265.373 395.927 265.698 397.5 265.698 399.282C265.698 401.095 265.373 402.69 264.722 404.066C264.071 405.431 263.133 406.498 261.906 407.266C260.679 408.034 259.213 408.418 257.506 408.418ZM257.506 406.162C259.426 406.162 260.855 405.527 261.794 404.258C262.733 402.978 263.202 401.319 263.202 399.282C263.202 397.191 262.727 395.527 261.778 394.29C260.839 393.052 259.415 392.434 257.506 392.434C256.215 392.434 255.149 392.727 254.306 393.314C253.474 393.89 252.85 394.695 252.434 395.73C252.029 396.754 251.826 397.938 251.826 399.282C251.826 401.362 252.306 403.031 253.266 404.29C254.226 405.538 255.639 406.162 257.506 406.162ZM277.287 408.418C275.698 408.418 274.354 408.018 273.255 407.218C272.157 406.407 271.325 405.314 270.759 403.938C270.194 402.551 269.911 400.999 269.911 399.282C269.911 397.532 270.194 395.975 270.759 394.61C271.335 393.234 272.178 392.151 273.287 391.362C274.397 390.572 275.762 390.178 277.383 390.178C278.962 390.178 280.317 390.578 281.447 391.378C282.578 392.178 283.442 393.266 284.039 394.642C284.647 396.018 284.951 397.564 284.951 399.282C284.951 401.01 284.647 402.562 284.039 403.938C283.431 405.314 282.557 406.407 281.415 407.218C280.274 408.018 278.898 408.418 277.287 408.418ZM269.511 415.618V390.658H271.623V403.666H271.879V415.618H269.511ZM277.047 406.226C278.253 406.226 279.255 405.922 280.055 405.314C280.855 404.706 281.453 403.879 281.847 402.834C282.253 401.778 282.455 400.594 282.455 399.282C282.455 397.98 282.258 396.807 281.863 395.762C281.469 394.716 280.866 393.89 280.055 393.282C279.255 392.674 278.237 392.37 276.999 392.37C275.794 392.37 274.791 392.663 273.991 393.25C273.202 393.836 272.61 394.652 272.215 395.698C271.821 396.732 271.623 397.927 271.623 399.282C271.623 400.615 271.821 401.81 272.215 402.866C272.61 403.911 273.207 404.732 274.007 405.33C274.807 405.927 275.821 406.226 277.047 406.226ZM296.525 408.418C294.936 408.418 293.592 408.018 292.493 407.218C291.394 406.407 290.562 405.314 289.997 403.938C289.432 402.551 289.149 400.999 289.149 399.282C289.149 397.532 289.432 395.975 289.997 394.61C290.573 393.234 291.416 392.151 292.525 391.362C293.634 390.572 295 390.178 296.621 390.178C298.2 390.178 299.554 390.578 300.685 391.378C301.816 392.178 302.68 393.266 303.277 394.642C303.885 396.018 304.189 397.564 304.189 399.282C304.189 401.01 303.885 402.562 303.277 403.938C302.669 405.314 301.794 406.407 300.653 407.218C299.512 408.018 298.136 408.418 296.525 408.418ZM288.749 415.618V390.658H290.861V403.666H291.117V415.618H288.749ZM296.285 406.226C297.49 406.226 298.493 405.922 299.293 405.314C300.093 404.706 300.69 403.879 301.085 402.834C301.49 401.778 301.693 400.594 301.693 399.282C301.693 397.98 301.496 396.807 301.101 395.762C300.706 394.716 300.104 393.89 299.293 393.282C298.493 392.674 297.474 392.37 296.237 392.37C295.032 392.37 294.029 392.663 293.229 393.25C292.44 393.836 291.848 394.652 291.453 395.698C291.058 396.732 290.861 397.927 290.861 399.282C290.861 400.615 291.058 401.81 291.453 402.866C291.848 403.911 292.445 404.732 293.245 405.33C294.045 405.927 295.058 406.226 296.285 406.226ZM315.314 408.418C313.629 408.418 312.168 408.044 310.93 407.298C309.704 406.551 308.749 405.5 308.066 404.146C307.384 402.791 307.042 401.202 307.042 399.378C307.042 397.49 307.378 395.858 308.05 394.482C308.722 393.106 309.666 392.044 310.882 391.298C312.109 390.551 313.554 390.178 315.218 390.178C316.925 390.178 318.381 390.572 319.586 391.362C320.792 392.14 321.704 393.26 322.322 394.722C322.941 396.183 323.224 397.927 323.17 399.954H320.77V399.122C320.728 396.882 320.242 395.191 319.314 394.05C318.397 392.908 317.053 392.338 315.282 392.338C313.426 392.338 312.002 392.94 311.01 394.146C310.029 395.351 309.538 397.068 309.538 399.298C309.538 401.474 310.029 403.164 311.01 404.37C312.002 405.564 313.405 406.162 315.218 406.162C316.456 406.162 317.533 405.879 318.45 405.314C319.378 404.738 320.109 403.911 320.642 402.834L322.834 403.682C322.152 405.186 321.144 406.354 319.81 407.186C318.488 408.007 316.989 408.418 315.314 408.418ZM308.706 399.954V397.986H321.906V399.954H308.706ZM327.005 407.938L327.021 390.658H329.389V398.978L337.101 390.658H340.237L332.141 399.298L341.293 407.938H337.869L329.389 399.618V407.938H327.005ZM358.044 410.93V407.938H343.18V390.658H345.532V405.682H354.572V390.658H356.924V405.762H360.396V410.93H358.044ZM376.974 390.658V407.938H374.686V394.482L365.214 407.938H363.23V390.658H365.518V404.002L375.006 390.658H376.974ZM392.597 407.938V401.426H388.565C388.096 401.426 387.61 401.41 387.109 401.378C386.618 401.335 386.16 401.276 385.733 401.202C384.517 400.967 383.482 400.434 382.629 399.602C381.786 398.759 381.365 397.596 381.365 396.114C381.365 394.663 381.76 393.5 382.549 392.626C383.338 391.74 384.293 391.164 385.413 390.898C385.925 390.78 386.442 390.711 386.965 390.69C387.498 390.668 387.957 390.658 388.341 390.658H394.949L394.965 407.938H392.597ZM380.805 407.938L385.621 400.69H388.229L383.381 407.938H380.805ZM388.437 399.41H392.597V392.674H388.437C388.181 392.674 387.824 392.684 387.365 392.706C386.906 392.727 386.474 392.796 386.069 392.914C385.717 393.02 385.365 393.207 385.013 393.474C384.672 393.73 384.384 394.076 384.149 394.514C383.914 394.94 383.797 395.463 383.797 396.082C383.797 396.946 384.032 397.639 384.501 398.162C384.981 398.674 385.578 399.026 386.293 399.218C386.677 399.303 387.061 399.356 387.445 399.378C387.829 399.399 388.16 399.41 388.437 399.41Z" fill="white"/>
<path d="M173.515 159.938H179.448V166.938H156.615V159.938H164.281V147.771C162.281 149.438 159.581 149.671 157.281 149.671V141.938C159.581 141.938 161.948 141.138 164.281 138.938H173.515V159.938ZM195.025 167.671C185.958 167.671 180.792 162.504 180.792 152.938C180.792 143.371 185.958 138.204 195.025 138.204C204.092 138.204 209.258 143.371 209.258 152.938C209.258 162.504 204.092 167.671 195.025 167.671ZM195.025 159.904C198.425 159.904 200.158 157.471 200.158 152.938C200.158 148.404 198.425 145.971 195.025 145.971C191.625 145.971 189.892 148.404 189.892 152.938C189.892 157.471 191.625 159.904 195.025 159.904ZM224.83 167.671C215.763 167.671 210.596 162.504 210.596 152.938C210.596 143.371 215.763 138.204 224.83 138.204C233.896 138.204 239.063 143.371 239.063 152.938C239.063 162.504 233.896 167.671 224.83 167.671ZM224.83 159.904C228.23 159.904 229.963 157.471 229.963 152.938C229.963 148.404 228.23 145.971 224.83 145.971C221.43 145.971 219.696 148.404 219.696 152.938C219.696 157.471 221.43 159.904 224.83 159.904ZM254.634 167.671C245.568 167.671 240.401 162.504 240.401 152.938C240.401 143.371 245.568 138.204 254.634 138.204C263.701 138.204 268.868 143.371 268.868 152.938C268.868 162.504 263.701 167.671 254.634 167.671ZM254.634 159.904C258.034 159.904 259.768 157.471 259.768 152.938C259.768 148.404 258.034 145.971 254.634 145.971C251.234 145.971 249.501 148.404 249.501 152.938C249.501 157.471 251.234 159.904 254.634 159.904Z" fill="white"/>
<path d="M284.481 176.538V145.098H289.321L290.161 147.938H290.441C290.841 147.351 291.321 146.818 291.881 146.338C292.441 145.831 293.108 145.431 293.881 145.138C294.681 144.844 295.601 144.698 296.641 144.698C299.095 144.698 301.081 145.658 302.601 147.578C304.121 149.471 304.881 152.271 304.881 155.978C304.881 158.458 304.521 160.551 303.801 162.258C303.081 163.938 302.095 165.204 300.841 166.058C299.588 166.911 298.135 167.338 296.481 167.338C295.441 167.338 294.535 167.204 293.761 166.938C293.015 166.671 292.375 166.324 291.841 165.898C291.308 165.471 290.841 165.018 290.441 164.538H290.121C290.228 165.044 290.308 165.578 290.361 166.138C290.415 166.671 290.441 167.204 290.441 167.738V176.538H284.481ZM294.801 162.498C295.708 162.498 296.455 162.244 297.041 161.738C297.628 161.231 298.068 160.484 298.361 159.498C298.655 158.511 298.801 157.311 298.801 155.898C298.801 153.764 298.468 152.164 297.801 151.098C297.161 150.004 296.135 149.458 294.721 149.458C293.681 149.458 292.855 149.671 292.241 150.098C291.628 150.524 291.175 151.178 290.881 152.058C290.615 152.911 290.468 153.991 290.441 155.298V155.938C290.441 157.351 290.575 158.551 290.841 159.538C291.108 160.498 291.561 161.231 292.201 161.738C292.841 162.244 293.708 162.498 294.801 162.498ZM309.941 176.538C309.274 176.538 308.674 176.511 308.141 176.458C307.608 176.404 307.141 176.324 306.741 176.218V171.498C307.141 171.551 307.528 171.604 307.901 171.658C308.301 171.711 308.728 171.738 309.181 171.738C310.008 171.738 310.701 171.618 311.261 171.378C311.848 171.164 312.341 170.791 312.741 170.258C313.168 169.724 313.541 169.018 313.861 168.138L315.261 164.218L315.181 169.298L305.581 145.098H312.261L316.301 157.378C316.434 157.778 316.541 158.178 316.621 158.578C316.728 158.978 316.808 159.391 316.861 159.818C316.941 160.244 316.994 160.698 317.021 161.178H317.141C317.221 160.484 317.328 159.831 317.461 159.218C317.594 158.578 317.754 157.964 317.941 157.378L321.901 145.098H328.181L319.021 169.738C318.461 171.284 317.754 172.551 316.901 173.538C316.048 174.551 315.048 175.298 313.901 175.778C312.754 176.284 311.434 176.538 309.941 176.538ZM340.913 167.338C338.567 167.338 336.593 166.844 334.993 165.858C333.393 164.844 332.18 163.324 331.353 161.298C330.527 159.244 330.113 156.658 330.113 153.538C330.113 151.004 330.34 148.791 330.793 146.898C331.247 145.004 331.927 143.404 332.833 142.098C333.74 140.764 334.887 139.698 336.273 138.898C337.687 138.071 339.327 137.484 341.193 137.138C341.753 137.031 342.473 136.911 343.353 136.778C344.233 136.644 345.18 136.511 346.193 136.378C347.207 136.244 348.18 136.138 349.113 136.058L349.673 141.298C348.9 141.378 348.06 141.484 347.153 141.618C346.247 141.724 345.367 141.844 344.513 141.978C343.687 142.084 342.967 142.191 342.353 142.298C340.913 142.564 339.74 142.978 338.833 143.538C337.927 144.098 337.22 144.871 336.713 145.858C336.233 146.844 335.887 148.138 335.673 149.738H335.953C336.46 148.938 337.047 148.271 337.713 147.738C338.38 147.178 339.14 146.764 339.993 146.498C340.873 146.204 341.833 146.058 342.873 146.058C344.687 146.058 346.233 146.471 347.513 147.298C348.82 148.098 349.807 149.258 350.473 150.778C351.167 152.271 351.513 154.058 351.513 156.138C351.513 158.618 351.06 160.684 350.153 162.338C349.247 163.991 347.993 165.244 346.393 166.098C344.82 166.924 342.993 167.338 340.913 167.338ZM340.953 162.618C341.993 162.618 342.847 162.404 343.513 161.978C344.18 161.551 344.673 160.898 344.993 160.018C345.313 159.138 345.473 158.031 345.473 156.698C345.473 154.698 345.113 153.218 344.393 152.258C343.673 151.271 342.54 150.778 340.993 150.778C339.393 150.778 338.22 151.271 337.473 152.258C336.753 153.218 336.393 154.684 336.393 156.658C336.393 157.991 336.553 159.111 336.873 160.018C337.193 160.898 337.687 161.551 338.353 161.978C339.047 162.404 339.913 162.618 340.953 162.618Z" fill="white"/>
<defs>
<filter id="filter0_d_319_28" x="0" y="0" width="508" height="555" filterUnits="userSpaceOnUse" color-interpolation-filters="sRGB">
<feFlood flood-opacity="0" result="BackgroundImageFix"/>
<feColorMatrix in="SourceAlpha" type="matrix" values="0 0 0 0 0 0 0 0 0 0 0 0 0 0 0 0 0 0 127 0" result="hardAlpha"/>
<feMorphology radius="4" operator="dilate" in="SourceAlpha" result="effect1_dropShadow_319_28"/>
<feOffset dy="24"/>
<feGaussianBlur stdDeviation="25"/>
<feComposite in2="hardAlpha" operator="out"/>
<feColorMatrix type="matrix" values="0 0 0 0 0.352941 0 0 0 0 0.321569 0 0 0 0 0.501961 0 0 0 0.24 0"/>
<feBlend mode="normal" in2="BackgroundImageFix" result="effect1_dropShadow_319_28"/>
<feBlend mode="normal" in="SourceGraphic" in2="effect1_dropShadow_319_28" result="shape"/>
</filter>
</defs>
</svg>
