<svg width="323" height="171" viewBox="0 0 323 171" fill="none" xmlns="http://www.w3.org/2000/svg">
<path d="M65.4 40C65.1067 40 64.88 39.92 64.72 39.76C64.56 39.5733 64.48 39.3467 64.48 39.08V12.96C64.48 12.6667 64.56 12.44 64.72 12.28C64.88 12.0933 65.1067 12 65.4 12H82.8C83.0933 12 83.32 12.0933 83.48 12.28C83.64 12.44 83.72 12.6667 83.72 12.96V14.56C83.72 14.8267 83.64 15.0533 83.48 15.24C83.32 15.4 83.0933 15.48 82.8 15.48H68.4V23.56H76.32C79.1467 23.56 81.3467 24.2933 82.92 25.76C84.4933 27.2267 85.28 29.2 85.28 31.68C85.28 32.6667 85.0933 33.6533 84.72 34.64C84.3467 35.6267 83.7867 36.52 83.04 37.32C82.32 38.12 81.4 38.7733 80.28 39.28C79.16 39.76 77.84 40 76.32 40H65.4ZM68.4 36.76H75.84C77.0133 36.76 78 36.5333 78.8 36.08C79.6 35.6 80.2133 34.96 80.64 34.16C81.0667 33.36 81.28 32.4933 81.28 31.56C81.28 30.1467 80.8267 29 79.92 28.12C79.04 27.2133 77.68 26.76 75.84 26.76H68.4V36.76ZM90.4269 40C90.1602 40 89.9335 39.92 89.7469 39.76C89.5869 39.5733 89.5069 39.3467 89.5069 39.08V20.12C89.5069 19.8533 89.5869 19.64 89.7469 19.48C89.9335 19.2933 90.1602 19.2 90.4269 19.2H92.3469C92.6135 19.2 92.8269 19.2933 92.9869 19.48C93.1735 19.64 93.2669 19.8533 93.2669 20.12V26H97.4269C100.147 26 102.134 26.64 103.387 27.92C104.64 29.2 105.267 30.9333 105.267 33.12C105.267 35.4667 104.574 37.2 103.187 38.32C101.8 39.44 99.7202 40 96.9469 40H90.4269ZM93.2269 37H97.0669C98.6935 37 99.8802 36.72 100.627 36.16C101.374 35.5733 101.747 34.56 101.747 33.12C101.747 31.7333 101.387 30.7067 100.667 30.04C99.9469 29.3467 98.7469 29 97.0669 29H93.2269V37ZM109.027 40C108.76 40 108.534 39.92 108.347 39.76C108.187 39.5733 108.107 39.3467 108.107 39.08V20.12C108.107 19.8533 108.187 19.64 108.347 19.48C108.534 19.2933 108.76 19.2 109.027 19.2H110.947C111.214 19.2 111.427 19.2933 111.587 19.48C111.774 19.64 111.867 19.8533 111.867 20.12V39.08C111.867 39.3467 111.774 39.5733 111.587 39.76C111.427 39.92 111.214 40 110.947 40H109.027ZM126.227 40.4C124.334 40.4 122.694 40.04 121.307 39.32C119.947 38.5733 118.894 37.52 118.147 36.16C117.401 34.7733 117.001 33.12 116.947 31.2C116.921 30.8 116.907 30.2667 116.907 29.6C116.907 28.9333 116.921 28.4 116.947 28C117.001 26.08 117.401 24.44 118.147 23.08C118.894 21.6933 119.947 20.64 121.307 19.92C122.694 19.1733 124.334 18.8 126.227 18.8C127.774 18.8 129.094 19.0133 130.187 19.44C131.307 19.8667 132.227 20.4133 132.947 21.08C133.667 21.7467 134.201 22.4667 134.547 23.24C134.921 24.0133 135.121 24.7467 135.147 25.44C135.174 25.7067 135.094 25.92 134.907 26.08C134.721 26.24 134.494 26.32 134.227 26.32H132.307C132.041 26.32 131.841 26.2667 131.707 26.16C131.574 26.0267 131.441 25.8133 131.307 25.52C130.827 24.2133 130.174 23.2933 129.347 22.76C128.521 22.2267 127.494 21.96 126.267 21.96C124.667 21.96 123.361 22.4533 122.347 23.44C121.361 24.4267 120.827 26.0133 120.747 28.2C120.721 29.16 120.721 30.0933 120.747 31C120.827 33.2133 121.361 34.8133 122.347 35.8C123.361 36.76 124.667 37.24 126.267 37.24C127.494 37.24 128.521 36.9733 129.347 36.44C130.174 35.9067 130.827 34.9867 131.307 33.68C131.441 33.3867 131.574 33.1867 131.707 33.08C131.841 32.9467 132.041 32.88 132.307 32.88H134.227C134.494 32.88 134.721 32.96 134.907 33.12C135.094 33.28 135.174 33.4933 135.147 33.76C135.121 34.32 135.001 34.8933 134.787 35.48C134.574 36.0667 134.227 36.6667 133.747 37.28C133.294 37.8667 132.721 38.4 132.027 38.88C131.334 39.3333 130.494 39.7067 129.507 40C128.547 40.2667 127.454 40.4 126.227 40.4ZM146.258 40C145.991 40 145.764 39.92 145.578 39.76C145.418 39.5733 145.338 39.3467 145.338 39.08V22.4H138.378C138.111 22.4 137.884 22.32 137.698 22.16C137.538 21.9733 137.458 21.7467 137.458 21.48V20.12C137.458 19.8533 137.538 19.64 137.698 19.48C137.884 19.2933 138.111 19.2 138.378 19.2H155.978C156.244 19.2 156.458 19.2933 156.618 19.48C156.804 19.64 156.898 19.8533 156.898 20.12V21.48C156.898 21.7467 156.804 21.9733 156.618 22.16C156.458 22.32 156.244 22.4 155.978 22.4H149.018V39.08C149.018 39.3467 148.938 39.5733 148.778 39.76C148.618 39.92 148.391 40 148.098 40H146.258ZM161.326 47.6C161.06 47.6 160.833 47.5067 160.646 47.32C160.486 47.16 160.406 46.9467 160.406 46.68V20.12C160.406 19.8533 160.486 19.64 160.646 19.48C160.833 19.2933 161.06 19.2 161.326 19.2H163.166C163.433 19.2 163.646 19.2933 163.806 19.48C163.993 19.64 164.086 19.8533 164.086 20.12V21.88C164.726 21 165.58 20.2667 166.646 19.68C167.713 19.0933 169.046 18.8 170.646 18.8C172.14 18.8 173.406 19.0533 174.446 19.56C175.513 20.0667 176.38 20.76 177.046 21.64C177.74 22.52 178.26 23.52 178.606 24.64C178.953 25.76 179.14 26.96 179.166 28.24C179.193 28.6667 179.206 29.12 179.206 29.6C179.206 30.08 179.193 30.5333 179.166 30.96C179.14 32.2133 178.953 33.4133 178.606 34.56C178.26 35.68 177.74 36.68 177.046 37.56C176.38 38.4133 175.513 39.1067 174.446 39.64C173.406 40.1467 172.14 40.4 170.646 40.4C169.1 40.4 167.793 40.12 166.726 39.56C165.686 38.9733 164.833 38.2533 164.166 37.4V46.68C164.166 46.9467 164.086 47.16 163.926 47.32C163.766 47.5067 163.54 47.6 163.246 47.6H161.326ZM169.806 37.16C171.193 37.16 172.273 36.8667 173.046 36.28C173.846 35.6667 174.42 34.88 174.766 33.92C175.113 32.9333 175.313 31.88 175.366 30.76C175.393 29.9867 175.393 29.2133 175.366 28.44C175.313 27.32 175.113 26.28 174.766 25.32C174.42 24.3333 173.846 23.5467 173.046 22.96C172.273 22.3467 171.193 22.04 169.806 22.04C168.5 22.04 167.433 22.3467 166.606 22.96C165.806 23.5733 165.206 24.36 164.806 25.32C164.433 26.2533 164.22 27.2133 164.166 28.2C164.14 28.6267 164.126 29.1333 164.126 29.72C164.126 30.3067 164.14 30.8267 164.166 31.28C164.193 32.2133 164.406 33.1333 164.806 34.04C165.233 34.9467 165.86 35.6933 166.686 36.28C167.513 36.8667 168.553 37.16 169.806 37.16ZM192.714 40.4C190.688 40.4 188.994 40.0133 187.634 39.24C186.274 38.4667 185.234 37.4 184.514 36.04C183.794 34.6533 183.394 33.08 183.314 31.32C183.288 30.8667 183.274 30.2933 183.274 29.6C183.274 28.88 183.288 28.3067 183.314 27.88C183.394 26.0933 183.794 24.52 184.514 23.16C185.261 21.8 186.314 20.7333 187.674 19.96C189.034 19.1867 190.714 18.8 192.714 18.8C194.714 18.8 196.394 19.1867 197.754 19.96C199.114 20.7333 200.154 21.8 200.874 23.16C201.621 24.52 202.034 26.0933 202.114 27.88C202.141 28.3067 202.154 28.88 202.154 29.6C202.154 30.2933 202.141 30.8667 202.114 31.32C202.034 33.08 201.634 34.6533 200.914 36.04C200.194 37.4 199.154 38.4667 197.794 39.24C196.434 40.0133 194.741 40.4 192.714 40.4ZM192.714 37.32C194.368 37.32 195.688 36.8 196.674 35.76C197.661 34.6933 198.194 33.1467 198.274 31.12C198.301 30.72 198.314 30.2133 198.314 29.6C198.314 28.9867 198.301 28.48 198.274 28.08C198.194 26.0533 197.661 24.52 196.674 23.48C195.688 22.4133 194.368 21.88 192.714 21.88C191.061 21.88 189.728 22.4133 188.714 23.48C187.728 24.52 187.208 26.0533 187.154 28.08C187.128 28.48 187.114 28.9867 187.114 29.6C187.114 30.2133 187.128 30.72 187.154 31.12C187.208 33.1467 187.728 34.6933 188.714 35.76C189.728 36.8 191.061 37.32 192.714 37.32Z" fill="black"/>
<path d="M65.4 163C65.1067 163 64.88 162.92 64.72 162.76C64.56 162.573 64.48 162.347 64.48 162.08V135.96C64.48 135.667 64.56 135.44 64.72 135.28C64.88 135.093 65.1067 135 65.4 135H67.44C67.7333 135 67.96 135.093 68.12 135.28C68.3067 135.44 68.4 135.667 68.4 135.96V147H72.92L80.04 135.64C80.1733 135.427 80.3467 135.267 80.56 135.16C80.7733 135.053 81.0533 135 81.4 135H83.56C83.8533 135 84.0667 135.08 84.2 135.24C84.3333 135.4 84.4 135.587 84.4 135.8C84.4 135.96 84.3333 136.133 84.2 136.32L76.52 148.56L84.96 161.6C85.04 161.707 85.08 161.853 85.08 162.04C85.08 162.307 84.9867 162.533 84.8 162.72C84.64 162.907 84.4267 163 84.16 163H81.88C81.5867 163 81.36 162.947 81.2 162.84C81.0667 162.707 80.9467 162.56 80.84 162.4L73.08 150.6H68.4V162.08C68.4 162.347 68.3067 162.573 68.12 162.76C67.96 162.92 67.7333 163 67.44 163H65.4ZM90.5059 170.6C90.2393 170.6 90.0126 170.507 89.8259 170.32C89.6659 170.16 89.5859 169.947 89.5859 169.68V143.12C89.5859 142.853 89.6659 142.64 89.8259 142.48C90.0126 142.293 90.2393 142.2 90.5059 142.2H92.3459C92.6126 142.2 92.8259 142.293 92.9859 142.48C93.1726 142.64 93.2659 142.853 93.2659 143.12V144.88C93.9059 144 94.7593 143.267 95.8259 142.68C96.8926 142.093 98.2259 141.8 99.8259 141.8C101.319 141.8 102.586 142.053 103.626 142.56C104.693 143.067 105.559 143.76 106.226 144.64C106.919 145.52 107.439 146.52 107.786 147.64C108.133 148.76 108.319 149.96 108.346 151.24C108.373 151.667 108.386 152.12 108.386 152.6C108.386 153.08 108.373 153.533 108.346 153.96C108.319 155.213 108.133 156.413 107.786 157.56C107.439 158.68 106.919 159.68 106.226 160.56C105.559 161.413 104.693 162.107 103.626 162.64C102.586 163.147 101.319 163.4 99.8259 163.4C98.2793 163.4 96.9726 163.12 95.9059 162.56C94.8659 161.973 94.0126 161.253 93.3459 160.4V169.68C93.3459 169.947 93.2659 170.16 93.1059 170.32C92.9459 170.507 92.7193 170.6 92.4259 170.6H90.5059ZM98.9859 160.16C100.373 160.16 101.453 159.867 102.226 159.28C103.026 158.667 103.599 157.88 103.946 156.92C104.293 155.933 104.493 154.88 104.546 153.76C104.573 152.987 104.573 152.213 104.546 151.44C104.493 150.32 104.293 149.28 103.946 148.32C103.599 147.333 103.026 146.547 102.226 145.96C101.453 145.347 100.373 145.04 98.9859 145.04C97.6793 145.04 96.6126 145.347 95.7859 145.96C94.9859 146.573 94.3859 147.36 93.9859 148.32C93.6126 149.253 93.3993 150.213 93.3459 151.2C93.3193 151.627 93.3059 152.133 93.3059 152.72C93.3059 153.307 93.3193 153.827 93.3459 154.28C93.3726 155.213 93.5859 156.133 93.9859 157.04C94.4126 157.947 95.0393 158.693 95.8659 159.28C96.6926 159.867 97.7326 160.16 98.9859 160.16ZM121.654 163.4C118.907 163.4 116.721 162.56 115.094 160.88C113.467 159.173 112.574 156.853 112.414 153.92C112.387 153.573 112.374 153.133 112.374 152.6C112.374 152.04 112.387 151.587 112.414 151.24C112.521 149.347 112.961 147.693 113.734 146.28C114.507 144.84 115.561 143.733 116.894 142.96C118.254 142.187 119.841 141.8 121.654 141.8C123.681 141.8 125.374 142.227 126.734 143.08C128.121 143.933 129.174 145.147 129.894 146.72C130.614 148.293 130.974 150.133 130.974 152.24V152.92C130.974 153.213 130.881 153.44 130.694 153.6C130.534 153.76 130.321 153.84 130.054 153.84H116.214C116.214 153.867 116.214 153.92 116.214 154C116.214 154.08 116.214 154.147 116.214 154.2C116.267 155.293 116.507 156.32 116.934 157.28C117.361 158.213 117.974 158.973 118.774 159.56C119.574 160.147 120.534 160.44 121.654 160.44C122.614 160.44 123.414 160.293 124.054 160C124.694 159.707 125.214 159.387 125.614 159.04C126.014 158.667 126.281 158.387 126.414 158.2C126.654 157.853 126.841 157.653 126.974 157.6C127.107 157.52 127.321 157.48 127.614 157.48H129.534C129.801 157.48 130.014 157.56 130.174 157.72C130.361 157.853 130.441 158.053 130.414 158.32C130.387 158.72 130.174 159.213 129.774 159.8C129.374 160.36 128.801 160.92 128.054 161.48C127.307 162.04 126.401 162.507 125.334 162.88C124.267 163.227 123.041 163.4 121.654 163.4ZM116.214 151.08H127.174V150.96C127.174 149.76 126.947 148.693 126.494 147.76C126.067 146.827 125.441 146.093 124.614 145.56C123.787 145 122.801 144.72 121.654 144.72C120.507 144.72 119.521 145 118.694 145.56C117.894 146.093 117.281 146.827 116.854 147.76C116.427 148.693 116.214 149.76 116.214 150.96V151.08ZM141.557 163.4C140.224 163.4 139.01 163.133 137.917 162.6C136.824 162.067 135.944 161.347 135.277 160.44C134.61 159.533 134.277 158.507 134.277 157.36C134.277 155.52 135.024 154.053 136.517 152.96C138.01 151.867 139.957 151.147 142.357 150.8L148.317 149.96V148.8C148.317 147.52 147.944 146.52 147.197 145.8C146.477 145.08 145.29 144.72 143.637 144.72C142.437 144.72 141.464 144.96 140.717 145.44C139.997 145.92 139.49 146.533 139.197 147.28C139.037 147.68 138.757 147.88 138.357 147.88H136.557C136.264 147.88 136.037 147.8 135.877 147.64C135.744 147.453 135.677 147.24 135.677 147C135.677 146.6 135.824 146.107 136.117 145.52C136.437 144.933 136.917 144.36 137.557 143.8C138.197 143.24 139.01 142.773 139.997 142.4C141.01 142 142.237 141.8 143.677 141.8C145.277 141.8 146.624 142.013 147.717 142.44C148.81 142.84 149.664 143.387 150.277 144.08C150.917 144.773 151.37 145.56 151.637 146.44C151.93 147.32 152.077 148.213 152.077 149.12V162.08C152.077 162.347 151.984 162.573 151.797 162.76C151.637 162.92 151.424 163 151.157 163H149.317C149.024 163 148.797 162.92 148.637 162.76C148.477 162.573 148.397 162.347 148.397 162.08V160.36C148.05 160.84 147.584 161.32 146.997 161.8C146.41 162.253 145.677 162.64 144.797 162.96C143.917 163.253 142.837 163.4 141.557 163.4ZM142.397 160.4C143.49 160.4 144.49 160.173 145.397 159.72C146.304 159.24 147.01 158.507 147.517 157.52C148.05 156.533 148.317 155.293 148.317 153.8V152.68L143.677 153.36C141.784 153.627 140.357 154.08 139.397 154.72C138.437 155.333 137.957 156.12 137.957 157.08C137.957 157.827 138.17 158.453 138.597 158.96C139.05 159.44 139.61 159.8 140.277 160.04C140.97 160.28 141.677 160.4 142.397 160.4ZM164.187 163C163.921 163 163.694 162.92 163.507 162.76C163.347 162.573 163.267 162.347 163.267 162.08V145.4H156.307C156.041 145.4 155.814 145.32 155.627 145.16C155.467 144.973 155.387 144.747 155.387 144.48V143.12C155.387 142.853 155.467 142.64 155.627 142.48C155.814 142.293 156.041 142.2 156.307 142.2H173.907C174.174 142.2 174.387 142.293 174.547 142.48C174.734 142.64 174.827 142.853 174.827 143.12V144.48C174.827 144.747 174.734 144.973 174.547 145.16C174.387 145.32 174.174 145.4 173.907 145.4H166.947V162.08C166.947 162.347 166.867 162.573 166.707 162.76C166.547 162.92 166.321 163 166.027 163H164.187ZM179.176 163C178.936 163 178.723 162.92 178.536 162.76C178.376 162.573 178.296 162.373 178.296 162.16V143.12C178.296 142.853 178.376 142.64 178.536 142.48C178.723 142.293 178.949 142.2 179.216 142.2H181.136C181.403 142.2 181.616 142.293 181.776 142.48C181.936 142.64 182.016 142.853 182.016 143.12V160.08L180.976 159L193.096 142.8C193.229 142.64 193.376 142.507 193.536 142.4C193.696 142.267 193.896 142.2 194.136 142.2H195.976C196.189 142.2 196.376 142.28 196.536 142.44C196.723 142.6 196.816 142.787 196.816 143V162.08C196.816 162.347 196.723 162.573 196.536 162.76C196.376 162.92 196.163 163 195.896 163H194.016C193.723 163 193.496 162.92 193.336 162.76C193.176 162.573 193.096 162.347 193.096 162.08V146.12L194.216 146.08L182.016 162.4C181.909 162.533 181.776 162.667 181.616 162.8C181.456 162.933 181.243 163 180.976 163H179.176ZM203.591 163C203.324 163 203.098 162.92 202.911 162.76C202.751 162.573 202.671 162.347 202.671 162.08V143.12C202.671 142.853 202.751 142.64 202.911 142.48C203.098 142.293 203.324 142.2 203.591 142.2H211.911C214.418 142.2 216.298 142.707 217.551 143.72C218.831 144.733 219.471 146.093 219.471 147.8C219.471 149 219.244 149.907 218.791 150.52C218.338 151.133 217.698 151.653 216.871 152.08C217.884 152.507 218.644 153.2 219.151 154.16C219.684 155.093 219.951 156.067 219.951 157.08C219.951 159 219.271 160.467 217.911 161.48C216.551 162.493 214.658 163 212.231 163H203.591ZM206.351 160.08H211.911C213.191 160.08 214.218 159.84 214.991 159.36C215.791 158.853 216.191 158.093 216.191 157.08C216.191 156.013 215.831 155.24 215.111 154.76C214.391 154.253 213.324 154 211.911 154H206.351V160.08ZM206.351 151.04H211.671C212.951 151.04 213.964 150.76 214.711 150.2C215.484 149.64 215.871 148.853 215.871 147.84C215.871 146.8 215.484 146.093 214.711 145.72C213.964 145.32 212.951 145.12 211.671 145.12H206.351V151.04ZM226.013 163C225.746 163 225.519 162.92 225.333 162.76C225.173 162.573 225.093 162.347 225.093 162.08V143.12C225.093 142.853 225.173 142.64 225.333 142.48C225.519 142.293 225.746 142.2 226.013 142.2H227.933C228.199 142.2 228.413 142.293 228.573 142.48C228.733 142.64 228.813 142.853 228.813 143.12V150.8H239.733V143.12C239.733 142.853 239.813 142.64 239.973 142.48C240.159 142.293 240.386 142.2 240.653 142.2H242.533C242.799 142.2 243.013 142.293 243.173 142.48C243.359 142.64 243.453 142.853 243.453 143.12V162.08C243.453 162.347 243.359 162.573 243.173 162.76C243.013 162.92 242.799 163 242.533 163H240.653C240.386 163 240.159 162.92 239.973 162.76C239.813 162.573 239.733 162.347 239.733 162.08V154H228.813V162.08C228.813 162.347 228.733 162.573 228.573 162.76C228.413 162.92 228.199 163 227.933 163H226.013ZM257.988 163.4C255.961 163.4 254.268 163.013 252.908 162.24C251.548 161.467 250.508 160.4 249.788 159.04C249.068 157.653 248.668 156.08 248.588 154.32C248.561 153.867 248.548 153.293 248.548 152.6C248.548 151.88 248.561 151.307 248.588 150.88C248.668 149.093 249.068 147.52 249.788 146.16C250.534 144.8 251.588 143.733 252.948 142.96C254.308 142.187 255.988 141.8 257.988 141.8C259.988 141.8 261.668 142.187 263.028 142.96C264.388 143.733 265.428 144.8 266.148 146.16C266.894 147.52 267.308 149.093 267.388 150.88C267.414 151.307 267.428 151.88 267.428 152.6C267.428 153.293 267.414 153.867 267.388 154.32C267.308 156.08 266.908 157.653 266.188 159.04C265.468 160.4 264.428 161.467 263.068 162.24C261.708 163.013 260.014 163.4 257.988 163.4ZM257.988 160.32C259.641 160.32 260.961 159.8 261.948 158.76C262.934 157.693 263.468 156.147 263.548 154.12C263.574 153.72 263.588 153.213 263.588 152.6C263.588 151.987 263.574 151.48 263.548 151.08C263.468 149.053 262.934 147.52 261.948 146.48C260.961 145.413 259.641 144.88 257.988 144.88C256.334 144.88 255.001 145.413 253.988 146.48C253.001 147.52 252.481 149.053 252.428 151.08C252.401 151.48 252.388 151.987 252.388 152.6C252.388 153.213 252.401 153.72 252.428 154.12C252.481 156.147 253.001 157.693 253.988 158.76C255.001 159.8 256.334 160.32 257.988 160.32Z" fill="black"/>
<path d="M65.4 100C65.1067 100 64.88 99.92 64.72 99.76C64.56 99.5733 64.48 99.3467 64.48 99.08V72.96C64.48 72.6667 64.56 72.44 64.72 72.28C64.88 72.0933 65.1067 72 65.4 72H67.44C67.7333 72 67.96 72.0933 68.12 72.28C68.3067 72.44 68.4 72.6667 68.4 72.96V84H82.16V72.96C82.16 72.6667 82.24 72.44 82.4 72.28C82.5867 72.0933 82.8133 72 83.08 72H85.12C85.4133 72 85.64 72.0933 85.8 72.28C85.9867 72.44 86.08 72.6667 86.08 72.96V99.08C86.08 99.3467 85.9867 99.5733 85.8 99.76C85.64 99.92 85.4133 100 85.12 100H83.08C82.8133 100 82.5867 99.92 82.4 99.76C82.24 99.5733 82.16 99.3467 82.16 99.08V87.6H68.4V99.08C68.4 99.3467 68.3067 99.5733 68.12 99.76C67.96 99.92 67.7333 100 67.44 100H65.4ZM98.2756 100.4C96.9423 100.4 95.729 100.133 94.6356 99.6C93.5423 99.0667 92.6623 98.3467 91.9956 97.44C91.329 96.5333 90.9956 95.5067 90.9956 94.36C90.9956 92.52 91.7423 91.0533 93.2356 89.96C94.729 88.8667 96.6756 88.1467 99.0756 87.8L105.036 86.96V85.8C105.036 84.52 104.662 83.52 103.916 82.8C103.196 82.08 102.009 81.72 100.356 81.72C99.1556 81.72 98.1823 81.96 97.4356 82.44C96.7156 82.92 96.209 83.5333 95.9156 84.28C95.7556 84.68 95.4756 84.88 95.0756 84.88H93.2756C92.9823 84.88 92.7556 84.8 92.5956 84.64C92.4623 84.4533 92.3956 84.24 92.3956 84C92.3956 83.6 92.5423 83.1067 92.8356 82.52C93.1556 81.9333 93.6356 81.36 94.2756 80.8C94.9156 80.24 95.729 79.7733 96.7156 79.4C97.729 79 98.9556 78.8 100.396 78.8C101.996 78.8 103.342 79.0133 104.436 79.44C105.529 79.84 106.382 80.3867 106.996 81.08C107.636 81.7733 108.089 82.56 108.356 83.44C108.649 84.32 108.796 85.2133 108.796 86.12V99.08C108.796 99.3467 108.702 99.5733 108.516 99.76C108.356 99.92 108.142 100 107.876 100H106.036C105.742 100 105.516 99.92 105.356 99.76C105.196 99.5733 105.116 99.3467 105.116 99.08V97.36C104.769 97.84 104.302 98.32 103.716 98.8C103.129 99.2533 102.396 99.64 101.516 99.96C100.636 100.253 99.5556 100.4 98.2756 100.4ZM99.1156 97.4C100.209 97.4 101.209 97.1733 102.116 96.72C103.022 96.24 103.729 95.5067 104.236 94.52C104.769 93.5333 105.036 92.2933 105.036 90.8V89.68L100.396 90.36C98.5023 90.6267 97.0756 91.08 96.1156 91.72C95.1556 92.3333 94.6756 93.12 94.6756 94.08C94.6756 94.8267 94.889 95.4533 95.3156 95.96C95.769 96.44 96.329 96.8 96.9956 97.04C97.689 97.28 98.3956 97.4 99.1156 97.4ZM113.346 104.4C113.079 104.4 112.853 104.307 112.666 104.12C112.506 103.96 112.426 103.747 112.426 103.48V97.72C112.426 97.4533 112.506 97.24 112.666 97.08C112.853 96.8933 113.079 96.8 113.346 96.8H113.546C114.266 96.7733 114.879 96.3733 115.386 95.6C115.893 94.8 116.279 93.56 116.546 91.88C116.813 90.1733 116.946 87.96 116.946 85.24V80.12C116.946 79.8533 117.026 79.64 117.186 79.48C117.373 79.2933 117.599 79.2 117.866 79.2H130.626C130.893 79.2 131.106 79.2933 131.266 79.48C131.453 79.64 131.546 79.8533 131.546 80.12V96.72H133.426C133.719 96.72 133.946 96.8133 134.106 97C134.266 97.16 134.346 97.3733 134.346 97.64V103.48C134.346 103.747 134.266 103.96 134.106 104.12C133.946 104.307 133.719 104.4 133.426 104.4H131.546C131.279 104.4 131.053 104.307 130.866 104.12C130.706 103.96 130.626 103.747 130.626 103.48V100H116.146V103.48C116.146 103.747 116.053 103.96 115.866 104.12C115.706 104.307 115.493 104.4 115.226 104.4H113.346ZM118.306 96.8L127.826 96.72V82.4H120.586V85.68C120.586 88.5067 120.386 90.8267 119.986 92.64C119.586 94.4267 119.026 95.8133 118.306 96.8ZM146.81 100.4C144.064 100.4 141.877 99.56 140.25 97.88C138.624 96.1733 137.73 93.8533 137.57 90.92C137.544 90.5733 137.53 90.1333 137.53 89.6C137.53 89.04 137.544 88.5867 137.57 88.24C137.677 86.3467 138.117 84.6933 138.89 83.28C139.664 81.84 140.717 80.7333 142.05 79.96C143.41 79.1867 144.997 78.8 146.81 78.8C148.837 78.8 150.53 79.2267 151.89 80.08C153.277 80.9333 154.33 82.1467 155.05 83.72C155.77 85.2933 156.13 87.1333 156.13 89.24V89.92C156.13 90.2133 156.037 90.44 155.85 90.6C155.69 90.76 155.477 90.84 155.21 90.84H141.37C141.37 90.8667 141.37 90.92 141.37 91C141.37 91.08 141.37 91.1467 141.37 91.2C141.424 92.2933 141.664 93.32 142.09 94.28C142.517 95.2133 143.13 95.9733 143.93 96.56C144.73 97.1467 145.69 97.44 146.81 97.44C147.77 97.44 148.57 97.2933 149.21 97C149.85 96.7067 150.37 96.3867 150.77 96.04C151.17 95.6667 151.437 95.3867 151.57 95.2C151.81 94.8533 151.997 94.6533 152.13 94.6C152.264 94.52 152.477 94.48 152.77 94.48H154.69C154.957 94.48 155.17 94.56 155.33 94.72C155.517 94.8533 155.597 95.0533 155.57 95.32C155.544 95.72 155.33 96.2133 154.93 96.8C154.53 97.36 153.957 97.92 153.21 98.48C152.464 99.04 151.557 99.5067 150.49 99.88C149.424 100.227 148.197 100.4 146.81 100.4ZM141.37 88.08H152.33V87.96C152.33 86.76 152.104 85.6933 151.65 84.76C151.224 83.8267 150.597 83.0933 149.77 82.56C148.944 82 147.957 81.72 146.81 81.72C145.664 81.72 144.677 82 143.85 82.56C143.05 83.0933 142.437 83.8267 142.01 84.76C141.584 85.6933 141.37 86.76 141.37 87.96V88.08ZM149.21 75.16C148.917 75.16 148.69 75.08 148.53 74.92C148.37 74.76 148.29 74.5467 148.29 74.28V72.12C148.29 71.8533 148.37 71.64 148.53 71.48C148.69 71.2933 148.917 71.2 149.21 71.2H151.37C151.637 71.2 151.85 71.2933 152.01 71.48C152.197 71.64 152.29 71.8533 152.29 72.12V74.28C152.29 74.5467 152.197 74.76 152.01 74.92C151.85 75.08 151.637 75.16 151.37 75.16H149.21ZM142.41 75.16C142.144 75.16 141.93 75.08 141.77 74.92C141.61 74.76 141.53 74.5467 141.53 74.28V72.12C141.53 71.8533 141.61 71.64 141.77 71.48C141.93 71.2933 142.144 71.2 142.41 71.2H144.61C144.877 71.2 145.09 71.2933 145.25 71.48C145.437 71.64 145.53 71.8533 145.53 72.12V74.28C145.53 74.5467 145.437 74.76 145.25 74.92C145.09 75.08 144.877 75.16 144.61 75.16H142.41ZM159.673 100C159.433 100 159.233 99.9467 159.073 99.84C158.94 99.7333 158.873 99.5733 158.873 99.36C158.873 99.2267 158.94 99.0533 159.073 98.84L165.913 89.12L159.873 80.32C159.82 80.24 159.78 80.16 159.753 80.08C159.726 79.9733 159.713 79.8933 159.713 79.84C159.713 79.6267 159.78 79.4667 159.913 79.36C160.073 79.2533 160.273 79.2 160.513 79.2H162.593C162.86 79.2 163.073 79.2533 163.233 79.36C163.393 79.4667 163.54 79.6133 163.673 79.8L169.073 87.8H172.113V80.12C172.113 79.8533 172.193 79.64 172.353 79.48C172.54 79.2933 172.766 79.2 173.033 79.2H174.873C175.166 79.2 175.393 79.2933 175.553 79.48C175.713 79.64 175.793 79.8533 175.793 80.12V87.8H178.713L184.193 79.8C184.3 79.6133 184.433 79.4667 184.593 79.36C184.78 79.2533 184.993 79.2 185.233 79.2H187.353C187.593 79.2 187.78 79.2533 187.913 79.36C188.073 79.4667 188.153 79.6267 188.153 79.84C188.153 79.8933 188.126 79.9733 188.073 80.08C188.046 80.16 188.006 80.24 187.953 80.32L181.953 89.12L188.793 98.84C188.9 99 188.953 99.1733 188.953 99.36C188.953 99.5733 188.886 99.7333 188.753 99.84C188.62 99.9467 188.42 100 188.153 100H185.753C185.486 100 185.26 99.9467 185.073 99.84C184.913 99.7333 184.78 99.5867 184.673 99.4L178.833 91H175.793V99.08C175.793 99.3467 175.713 99.5733 175.553 99.76C175.393 99.92 175.166 100 174.873 100H173.033C172.766 100 172.54 99.92 172.353 99.76C172.193 99.5733 172.113 99.3467 172.113 99.08V91H169.073L163.153 99.4C163.073 99.5867 162.94 99.7333 162.753 99.84C162.593 99.9467 162.38 100 162.113 100H159.673ZM193.747 100C193.481 100 193.254 99.92 193.067 99.76C192.907 99.5733 192.827 99.3467 192.827 99.08V80.12C192.827 79.8533 192.907 79.64 193.067 79.48C193.254 79.2933 193.481 79.2 193.747 79.2H195.667C195.934 79.2 196.147 79.2933 196.307 79.48C196.467 79.64 196.547 79.8533 196.547 80.12V87.8H207.467V80.12C207.467 79.8533 207.547 79.64 207.707 79.48C207.894 79.2933 208.121 79.2 208.387 79.2H210.267C210.534 79.2 210.747 79.2933 210.907 79.48C211.094 79.64 211.187 79.8533 211.187 80.12V99.08C211.187 99.3467 211.094 99.5733 210.907 99.76C210.747 99.92 210.534 100 210.267 100H208.387C208.121 100 207.894 99.92 207.707 99.76C207.547 99.5733 207.467 99.3467 207.467 99.08V91H196.547V99.08C196.547 99.3467 196.467 99.5733 196.307 99.76C196.147 99.92 195.934 100 195.667 100H193.747ZM225.722 100.4C223.696 100.4 222.002 100.013 220.642 99.24C219.282 98.4667 218.242 97.4 217.522 96.04C216.802 94.6533 216.402 93.08 216.322 91.32C216.296 90.8667 216.282 90.2933 216.282 89.6C216.282 88.88 216.296 88.3067 216.322 87.88C216.402 86.0933 216.802 84.52 217.522 83.16C218.269 81.8 219.322 80.7333 220.682 79.96C222.042 79.1867 223.722 78.8 225.722 78.8C227.722 78.8 229.402 79.1867 230.762 79.96C232.122 80.7333 233.162 81.8 233.882 83.16C234.629 84.52 235.042 86.0933 235.122 87.88C235.149 88.3067 235.162 88.88 235.162 89.6C235.162 90.2933 235.149 90.8667 235.122 91.32C235.042 93.08 234.642 94.6533 233.922 96.04C233.202 97.4 232.162 98.4667 230.802 99.24C229.442 100.013 227.749 100.4 225.722 100.4ZM225.722 97.32C227.376 97.32 228.696 96.8 229.682 95.76C230.669 94.6933 231.202 93.1467 231.282 91.12C231.309 90.72 231.322 90.2133 231.322 89.6C231.322 88.9867 231.309 88.48 231.282 88.08C231.202 86.0533 230.669 84.52 229.682 83.48C228.696 82.4133 227.376 81.88 225.722 81.88C224.069 81.88 222.736 82.4133 221.722 83.48C220.736 84.52 220.216 86.0533 220.162 88.08C220.136 88.48 220.122 88.9867 220.122 89.6C220.122 90.2133 220.136 90.72 220.162 91.12C220.216 93.1467 220.736 94.6933 221.722 95.76C222.736 96.8 224.069 97.32 225.722 97.32Z" fill="black"/>
<path d="M25.65 23.4V14.85C25.65 14.4167 25.5083 14.0583 25.225 13.775C24.9417 13.4917 24.5833 13.35 24.15 13.35C23.7167 13.35 23.3583 13.4917 23.075 13.775C22.7917 14.0583 22.65 14.4167 22.65 14.85V24C22.65 24.2 22.6833 24.3833 22.75 24.55C22.8167 24.7167 22.9167 24.8833 23.05 25.05L30.25 32.5C30.55 32.8333 30.925 32.9917 31.375 32.975C31.825 32.9583 32.2 32.8 32.5 32.5C32.8 32.2 32.95 31.8333 32.95 31.4C32.95 30.9667 32.8 30.6 32.5 30.3L25.65 23.4ZM24 44C21.2667 44 18.6833 43.475 16.25 42.425C13.8167 41.375 11.6917 39.9417 9.875 38.125C8.05833 36.3083 6.625 34.1833 5.575 31.75C4.525 29.3167 4 26.7333 4 24C4 21.2667 4.525 18.6833 5.575 16.25C6.625 13.8167 8.05833 11.6917 9.875 9.875C11.6917 8.05833 13.8167 6.625 16.25 5.575C18.6833 4.525 21.2667 4 24 4C26.7333 4 29.3167 4.525 31.75 5.575C34.1833 6.625 36.3083 8.05833 38.125 9.875C39.9417 11.6917 41.375 13.8167 42.425 16.25C43.475 18.6833 44 21.2667 44 24C44 26.7333 43.475 29.3167 42.425 31.75C41.375 34.1833 39.9417 36.3083 38.125 38.125C36.3083 39.9417 34.1833 41.375 31.75 42.425C29.3167 43.475 26.7333 44 24 44ZM24 41C28.6667 41 32.6667 39.3333 36 36C39.3333 32.6667 41 28.6667 41 24C41 19.3333 39.3333 15.3333 36 12C32.6667 8.66667 28.6667 7 24 7C19.3333 7 15.3333 8.66667 12 12C8.66667 15.3333 7 19.3333 7 24C7 28.6667 8.66667 32.6667 12 36C15.3333 39.3333 19.3333 41 24 41Z" fill="#152555"/>
<path d="M19.4 86.9471L15.75 83.1471C15.45 82.8137 15.0833 82.6471 14.65 82.6471C14.2167 82.6471 13.8333 82.7971 13.5 83.0971C13.1667 83.4304 13 83.8137 13 84.2471C13 84.6804 13.1667 85.0637 13.5 85.3971L18.35 90.1971C18.65 90.4971 19 90.6471 19.4 90.6471C19.8 90.6471 20.15 90.4971 20.45 90.1971L29.6 81.0971C29.9 80.7971 30.05 80.4304 30.05 79.9971C30.05 79.5637 29.8833 79.1971 29.55 78.8971C29.25 78.6304 28.8917 78.5054 28.475 78.5221C28.0583 78.5387 27.7167 78.6804 27.45 78.9471L19.4 86.9471ZM14.15 104.397L11.05 99.0971L4.85 97.8471C4.48333 97.7804 4.175 97.5804 3.925 97.2471C3.675 96.9137 3.58333 96.5637 3.65 96.1971L4.35 90.1971L0.4 85.5971C0.133333 85.3304 0 84.9971 0 84.5971C0 84.1971 0.133333 83.8637 0.4 83.5971L4.35 79.0471L3.65 73.0471C3.58333 72.6804 3.675 72.3304 3.925 71.9971C4.175 71.6637 4.48333 71.4637 4.85 71.3971L11.05 70.1471L14.15 64.7971C14.35 64.4637 14.6333 64.2304 15 64.0971C15.3667 63.9637 15.7333 63.9804 16.1 64.1471L21.55 66.6971L27 64.1471C27.3667 63.9804 27.7333 63.9554 28.1 64.0721C28.4667 64.1887 28.75 64.4137 28.95 64.7471L32.1 70.1471L38.25 71.3971C38.6167 71.4637 38.925 71.6637 39.175 71.9971C39.425 72.3304 39.5167 72.6804 39.45 73.0471L38.75 79.0471L42.7 83.5971C42.9667 83.8637 43.1 84.1971 43.1 84.5971C43.1 84.9971 42.9667 85.3304 42.7 85.5971L38.75 90.1971L39.45 96.1971C39.5167 96.5637 39.425 96.9137 39.175 97.2471C38.925 97.5804 38.6167 97.7804 38.25 97.8471L32.1 99.0971L28.95 104.447C28.75 104.78 28.4667 105.005 28.1 105.122C27.7333 105.239 27.3667 105.214 27 105.047L21.55 102.497L16.1 105.047C15.7333 105.214 15.3667 105.23 15 105.097C14.6333 104.964 14.35 104.73 14.15 104.397ZM16.2 101.647L21.55 99.3971L27.05 101.647L30.4 96.6471L36.25 95.1471L35.65 89.1971L39.7 84.5971L35.65 79.8971L36.25 73.9471L30.4 72.5471L26.95 67.5471L21.55 69.7971L16.05 67.5471L12.7 72.5471L6.85 73.9471L7.45 79.8971L3.4 84.5971L7.45 89.1971L6.85 95.2471L12.7 96.6471L16.2 101.647Z" fill="#152555"/>
<path d="M9.5 165C9.06667 165 8.70833 164.858 8.425 164.575C8.14167 164.292 8 163.933 8 163.5V159.85C8 159.45 8.08333 159.058 8.25 158.675C8.41667 158.292 8.63333 157.967 8.9 157.7L36.55 130.05C36.9167 129.683 37.2917 129.417 37.675 129.25C38.0583 129.083 38.4667 129 38.9 129C39.3 129 39.6917 129.083 40.075 129.25C40.4583 129.417 40.8333 129.683 41.2 130.05L42.95 131.8C43.3167 132.133 43.5833 132.492 43.75 132.875C43.9167 133.258 44 133.667 44 134.1C44 134.5 43.9167 134.9 43.75 135.3C43.5833 135.7 43.3167 136.083 42.95 136.45L15.3 164.1C15.0333 164.367 14.7083 164.583 14.325 164.75C13.9417 164.917 13.55 165 13.15 165H9.5ZM11 162H13.2L35.5 139.7L34.4 138.6L33.3 137.5L11 159.8V162ZM34.4 138.6L33.3 137.5L35.5 139.7L34.4 138.6ZM28 165C30.6 165 32.9167 164.392 34.95 163.175C36.9833 161.958 38 160.233 38 158C38 156.8 37.6 155.7 36.8 154.7C36 153.7 34.7667 152.833 33.1 152.1C32.7333 151.933 32.3417 151.867 31.925 151.9C31.5083 151.933 31.1833 152.133 30.95 152.5C30.7167 152.867 30.6417 153.267 30.725 153.7C30.8083 154.133 31.0333 154.433 31.4 154.6C32.5 155.1 33.375 155.642 34.025 156.225C34.675 156.808 35 157.4 35 158C35 159.067 34.325 160 32.975 160.8C31.625 161.6 29.9667 162 28 162C27.6 162 27.25 162.142 26.95 162.425C26.65 162.708 26.5 163.067 26.5 163.5C26.5 163.9 26.65 164.25 26.95 164.55C27.25 164.85 27.6 165 28 165ZM18.5 135.05C18.5 135.717 18.1833 136.3 17.55 136.8C16.9167 137.3 15.5 137.95 13.3 138.75C10.1667 139.883 8.16667 140.917 7.3 141.85C6.43333 142.783 6 143.833 6 145C6 146.267 6.45 147.283 7.35 148.05C8.25 148.817 9.25 149.4 10.35 149.8C10.75 149.967 11.1333 149.958 11.5 149.775C11.8667 149.592 12.1167 149.3 12.25 148.9C12.3833 148.5 12.3667 148.125 12.2 147.775C12.0333 147.425 11.75 147.167 11.35 147C10.5833 146.7 10 146.383 9.6 146.05C9.2 145.717 9 145.367 9 145C9 144.467 9.35833 143.958 10.075 143.475C10.7917 142.992 12.2667 142.333 14.5 141.5C17.2667 140.467 19.125 139.475 20.075 138.525C21.025 137.575 21.5 136.417 21.5 135.05C21.5 133.183 20.8167 131.708 19.45 130.625C18.0833 129.542 16.2667 129 14 129C12.6 129 11.3333 129.242 10.2 129.725C9.06667 130.208 8.21667 130.817 7.65 131.55C7.38333 131.85 7.25833 132.2 7.275 132.6C7.29167 133 7.48333 133.333 7.85 133.6C8.18333 133.867 8.55833 133.975 8.975 133.925C9.39167 133.875 9.73333 133.717 10 133.45C10.5 132.95 11.0667 132.583 11.7 132.35C12.3333 132.117 13.1 132 14 132C15.5333 132 16.6667 132.3 17.4 132.9C18.1333 133.5 18.5 134.217 18.5 135.05Z" fill="#152555"/>
</svg>
